<svg xmlns="http://www.w3.org/2000/svg" xmlns:xlink="http://www.w3.org/1999/xlink" width="1200" zoomAndPan="magnify" viewBox="0 0 900 749.999995" height="1000" preserveAspectRatio="xMidYMid meet" version="1.0"><defs><clipPath id="ede0d8652b"><path d="M 563.980469 0 L 899.980469 0 L 899.980469 750 L 563.980469 750 Z M 563.980469 0 " clip-rule="nonzero"/></clipPath><clipPath id="32717af82b"><path d="M 567 683 L 899.980469 683 L 899.980469 697 L 567 697 Z M 567 683 " clip-rule="nonzero"/></clipPath><clipPath id="1bd1b98abd"><path d="M 877 199 L 899.980469 199 L 899.980469 426 L 877 426 Z M 877 199 " clip-rule="nonzero"/></clipPath><clipPath id="fbe53da4cd"><path d="M 890 655 L 899.980469 655 L 899.980469 692 L 890 692 Z M 890 655 " clip-rule="nonzero"/></clipPath><clipPath id="716ca2152b"><path d="M 890 684 L 899.980469 684 L 899.980469 692 L 890 692 Z M 890 684 " clip-rule="nonzero"/></clipPath><clipPath id="38a48624cb"><path d="M 869 314 L 899.980469 314 L 899.980469 394 L 869 394 Z M 869 314 " clip-rule="nonzero"/></clipPath><clipPath id="31120388f5"><path d="M 869 238 L 899.980469 238 L 899.980469 338 L 869 338 Z M 869 238 " clip-rule="nonzero"/></clipPath><clipPath id="475209f0b4"><path d="M 890 397 L 899.980469 397 L 899.980469 424 L 890 424 Z M 890 397 " clip-rule="nonzero"/></clipPath><clipPath id="229bf3468e"><path d="M 852 410 L 899.980469 410 L 899.980469 505 L 852 505 Z M 852 410 " clip-rule="nonzero"/></clipPath><clipPath id="af675a065b"><path d="M 897 414 L 899.980469 414 L 899.980469 462 L 897 462 Z M 897 414 " clip-rule="nonzero"/></clipPath><clipPath id="7f9c490236"><path d="M 873 213 L 899.980469 213 L 899.980469 299 L 873 299 Z M 873 213 " clip-rule="nonzero"/></clipPath></defs><g clip-path="url(#ede0d8652b)"><path fill="#ffffff" d="M 464.792969 0 L 1364.792969 0 L 1364.792969 750 L 464.792969 750 Z M 464.792969 0 " fill-opacity="1" fill-rule="nonzero"/></g><g clip-path="url(#32717af82b)"><path fill="#898989" d="M 1271.066406 689.90625 C 1271.066406 693.683594 1113.679688 696.75 919.53125 696.75 C 725.382812 696.75 567.996094 693.683594 567.996094 689.90625 C 567.996094 686.125 725.382812 683.0625 919.53125 683.0625 C 1113.679688 683.0625 1271.066406 686.125 1271.066406 689.90625 Z M 1271.066406 689.90625 " fill-opacity="1" fill-rule="nonzero"/></g><path fill="#f9dd50" d="M 776.101562 690.128906 C 776.121094 690.128906 776.140625 690.136719 776.15625 690.140625 C 782.652344 691.414062 800.871094 691.609375 803.726562 689.21875 C 803.628906 686.488281 802.710938 684.847656 802.183594 683.375 C 802.105469 683.15625 802.019531 682.945312 801.929688 682.746094 C 801.035156 680.800781 799.476562 679.546875 797.574219 677.738281 C 794.636719 674.949219 790.878906 670.839844 787.488281 660.820312 L 787.226562 660.78125 L 778.457031 659.460938 C 778.453125 659.46875 778.453125 659.476562 778.449219 659.488281 C 778.4375 659.511719 778.429688 659.539062 778.417969 659.566406 C 777.464844 662.207031 775.164062 671.84375 774.039062 679.496094 C 773.328125 684.324219 775.046875 689.917969 776.101562 690.128906 Z M 776.101562 690.128906 " fill-opacity="1" fill-rule="nonzero"/><path fill="#ffb278" d="M 797.4375 608.777344 C 794.671875 622.851562 788.597656 649.273438 788.597656 663.933594 C 788.597656 668.867188 787.050781 675.554688 780.597656 667.070312 C 776.398438 661.542969 775.894531 626.339844 775.804688 618.152344 Z M 797.4375 608.777344 " fill-opacity="1" fill-rule="nonzero"/><path fill="#ffb278" d="M 778.417969 659.402344 L 778.417969 659.566406 C 778.417969 663.621094 778.535156 667.625 779.214844 671.554688 C 779.59375 673.738281 779.980469 677.199219 781.480469 678.800781 C 783.078125 680.511719 785.242188 678.34375 786.921875 677.503906 C 788.894531 676.515625 791.183594 676.117188 793.429688 676.28125 C 794.960938 676.394531 796.261719 677.066406 797.574219 677.738281 C 794.636719 674.953125 790.878906 670.839844 787.488281 660.820312 L 787.226562 660.78125 C 785.917969 661.765625 784.023438 662.167969 782.691406 662.261719 C 780.394531 662.425781 779.210938 661.640625 778.449219 659.488281 C 778.441406 659.460938 778.429688 659.433594 778.417969 659.402344 Z M 778.417969 659.402344 " fill-opacity="1" fill-rule="nonzero"/><path fill="#f9dd50" d="M 833.621094 689.492188 C 833.640625 689.496094 833.660156 689.5 833.679688 689.503906 C 840.167969 690.8125 858.382812 691.105469 861.253906 688.734375 C 861.164062 686 860.253906 684.355469 859.734375 682.882812 C 859.65625 682.660156 859.570312 682.453125 859.480469 682.25 C 858.59375 680.300781 857.042969 679.039062 855.144531 677.21875 C 852.21875 674.414062 848.480469 670.285156 845.128906 660.246094 L 844.867188 660.207031 L 836.105469 658.839844 C 836.101562 658.851562 836.097656 658.855469 836.09375 658.867188 C 836.085938 658.890625 836.074219 658.917969 836.066406 658.945312 C 835.097656 661.582031 832.761719 671.203125 831.601562 678.851562 C 830.875 683.675781 832.566406 689.277344 833.621094 689.492188 Z M 833.621094 689.492188 " fill-opacity="1" fill-rule="nonzero"/><path fill="#ffb278" d="M 854.277344 609.199219 C 851.457031 623.257812 846.339844 650.113281 846.277344 664.777344 C 846.257812 669.710938 844.628906 674.980469 838.214844 666.460938 C 834.035156 660.910156 833.675781 625.703125 833.621094 617.515625 Z M 854.277344 609.199219 " fill-opacity="1" fill-rule="nonzero"/><path fill="#ffb278" d="M 836.066406 658.78125 L 836.066406 658.945312 C 836.046875 663 836.148438 667 836.8125 670.9375 C 837.179688 673.121094 837.554688 676.585938 839.046875 678.195312 C 840.636719 679.914062 842.8125 677.757812 844.496094 676.925781 C 846.472656 675.949219 848.757812 675.5625 851.007812 675.742188 C 852.539062 675.863281 853.835938 676.539062 855.144531 677.21875 C 852.21875 674.414062 848.480469 670.285156 845.128906 660.25 L 844.867188 660.207031 C 843.554688 661.183594 841.65625 661.578125 840.324219 661.664062 C 838.027344 661.8125 836.847656 661.023438 836.09375 658.867188 C 836.085938 658.839844 836.074219 658.808594 836.066406 658.78125 Z M 836.066406 658.78125 " fill-opacity="1" fill-rule="nonzero"/><path fill="#301f23" d="M 783.703125 255.050781 C 780.894531 235.679688 789.671875 183.855469 792.40625 171.960938 C 798.019531 147.539062 803.914062 151.75 812.054688 149.503906 L 840.96875 168.03125 C 845.492188 174.582031 845.441406 184.628906 845.460938 192.171875 C 845.484375 201.132812 853.46875 193.648438 852.757812 202.558594 C 852.164062 210 854.378906 258.265625 857.53125 259.824219 C 854.148438 262.179688 785.554688 267.816406 783.703125 255.050781 Z M 783.703125 255.050781 " fill-opacity="1" fill-rule="nonzero"/><path fill="#ffb278" d="M 775.5625 265.15625 C 778.28125 255.957031 775.925781 244.207031 785.285156 242.847656 C 788.898438 242.320312 795.414062 241.273438 800.617188 239.476562 C 800.589844 239.402344 800.5625 239.328125 800.535156 239.253906 C 800.730469 239.28125 800.917969 239.296875 801.101562 239.304688 C 802.328125 238.863281 803.46875 238.375 804.472656 237.839844 C 808.867188 233.1875 808.796875 218.871094 809.246094 214.828125 C 809.316406 214.230469 809.382812 213.585938 809.449219 212.90625 C 809.929688 207.597656 810.171875 200.050781 807.835938 196.066406 L 833.875 208.492188 L 837.046875 210.003906 C 836.902344 210.367188 836.765625 210.746094 836.636719 211.136719 C 835.375 214.917969 834.777344 219.890625 834.945312 224.054688 C 834.945312 224.097656 834.945312 224.140625 834.953125 224.183594 C 834.953125 224.21875 834.957031 224.253906 834.960938 224.292969 C 834.960938 224.300781 834.960938 224.308594 834.964844 224.3125 C 835.046875 225.089844 835.359375 226.746094 835.871094 228.785156 C 836.277344 230.398438 836.804688 232.257812 837.441406 234.113281 L 837.558594 234.101562 C 840.847656 240.351562 850.175781 241.558594 857.40625 245.734375 C 860.820312 247.707031 858.757812 258.484375 859.214844 262.910156 C 860.898438 279.191406 786.507812 275.636719 775.5625 265.15625 Z M 775.5625 265.15625 " fill-opacity="1" fill-rule="nonzero"/><path fill="#e5804e" d="M 834.964844 224.316406 C 835.046875 225.09375 835.359375 226.746094 835.867188 228.785156 C 829.738281 239.894531 812.355469 230.511719 808.6875 216.03125 C 808.34375 214.679688 810.023438 214.234375 809.449219 212.90625 C 809.929688 207.597656 810.171875 200.050781 807.835938 196.066406 L 833.875 208.492188 L 836.636719 211.136719 C 835.375 214.917969 834.777344 219.890625 834.945312 224.054688 C 834.945312 224.097656 834.945312 224.140625 834.953125 224.183594 C 834.953125 224.21875 834.957031 224.257812 834.960938 224.292969 C 834.960938 224.300781 834.960938 224.308594 834.964844 224.316406 Z M 834.964844 224.316406 " fill-opacity="1" fill-rule="nonzero"/><path fill="#601e13" d="M 736.386719 295.519531 C 738.597656 295.652344 740.371094 303.378906 739.753906 311.941406 C 737.152344 348.160156 747.648438 386.246094 761.28125 387 C 770.691406 387.519531 779.363281 384.886719 788.421875 384.003906 C 792.046875 383.652344 795.601562 383.5625 799.125 383.433594 C 803.9375 383.261719 808.691406 383.015625 813.5 381.949219 C 814.21875 381.789062 815.320312 381.484375 816.027344 381.289062 L 802.550781 245.695312 C 796.71875 241.433594 796.484375 239.25 788.597656 239.097656 C 781.976562 238.964844 771.996094 240.277344 765.441406 242.042969 C 761.050781 243.226562 756.878906 244.585938 753.273438 246.390625 C 747.886719 249.089844 743.769531 252.777344 742.097656 258.324219 C 739.199219 267.953125 735.964844 279.9375 736.386719 295.519531 Z M 736.386719 295.519531 " fill-opacity="1" fill-rule="nonzero"/><path fill="#822316" d="M 736.386719 295.519531 C 738.597656 295.652344 740.371094 303.378906 739.753906 311.941406 C 737.152344 348.160156 747.648438 386.246094 761.28125 387 C 770.691406 387.519531 779.363281 384.886719 788.421875 384.003906 C 792.046875 383.652344 795.601562 383.5625 799.125 383.433594 C 800.917969 379.472656 801.300781 375.558594 799.285156 372.238281 C 797.175781 368.773438 791.714844 366.808594 788.601562 364.386719 C 784.96875 361.566406 781.675781 358.222656 778.398438 355 C 764.175781 341.003906 763.773438 320.121094 763.773438 300.960938 C 763.773438 287.332031 763.667969 272.542969 760.40625 259.386719 C 759.085938 254.074219 757.699219 249.34375 753.273438 246.394531 C 747.886719 249.089844 743.769531 252.777344 742.097656 258.328125 C 739.199219 267.953125 735.964844 279.9375 736.386719 295.519531 Z M 736.386719 295.519531 " fill-opacity="1" fill-rule="nonzero"/><path fill="#ffb278" d="M 857.769531 433.886719 C 858.238281 429.800781 856.890625 425.019531 855.878906 421.03125 C 849.53125 422.117188 854.285156 410.34375 855.59375 407.929688 C 855.417969 407.160156 855.128906 407.820312 854.699219 407.519531 L 861.859375 404.570312 C 864.414062 409.785156 867.609375 416.972656 868.082031 422.675781 C 868.394531 426.464844 865.253906 438.867188 862.699219 441.242188 C 860.394531 440.296875 856.664062 441.765625 854.578125 440.484375 C 853.105469 439.582031 851.371094 435.210938 850.976562 433.707031 C 853.183594 432.816406 855.601562 433.230469 857.769531 433.886719 Z M 857.769531 433.886719 " fill-opacity="1" fill-rule="nonzero"/><path fill="#ffb278" d="M 842.40625 244.859375 C 848.546875 238.9375 863.496094 242.125 864.316406 271.738281 C 864.417969 275.402344 861.640625 335.417969 861.601562 339.964844 C 861.40625 362.871094 863.589844 405.039062 864.386719 412.992188 C 860.191406 412.472656 858.417969 413.558594 854.210938 413.195312 C 851.371094 399.234375 828.769531 258.007812 842.40625 244.859375 Z M 842.40625 244.859375 " fill-opacity="1" fill-rule="nonzero"/><path fill="#f5dfd4" d="M 771.632812 272.457031 C 772.027344 274.148438 773.277344 288.328125 774.265625 306.289062 C 775.074219 320.964844 775.707031 338.167969 775.5625 353.15625 C 775.480469 361.707031 775.140625 369.535156 774.4375 375.757812 L 849.109375 374.632812 C 846.539062 371.210938 846.007812 363.828125 846.480469 350.800781 C 846.664062 345.769531 847 339.902344 847.425781 333.089844 C 848.15625 321.34375 850.371094 313.800781 852.871094 307.46875 C 853.347656 306.269531 853.832031 305.113281 854.320312 303.984375 C 856.484375 298.9375 858.699219 294.347656 860.246094 288.421875 C 860.730469 286.578125 861.148438 284.601562 861.476562 282.445312 C 863.707031 267.964844 864.269531 247.191406 859.773438 244.945312 L 840.125 237.085938 C 839.460938 244.921875 831.441406 251.464844 826.089844 251.121094 C 815.421875 250.433594 810.367188 243.261719 804.472656 237.839844 C 802.988281 236.480469 788.503906 238.773438 771.71875 246.601562 C 769.84375 247.476562 766.019531 252.246094 771.632812 272.457031 Z M 771.632812 272.457031 " fill-opacity="1" fill-rule="nonzero"/><path fill="#f5dfd4" d="M 844.285156 308.492188 C 847.296875 308.382812 850.269531 308.144531 852.875 307.46875 C 856.871094 306.429688 860.011719 304.355469 861.105469 300.105469 C 861.628906 298.101562 861.695312 295.613281 861.179688 292.523438 C 861.03125 291.605469 860.695312 290.183594 860.25 288.421875 C 858.375 281.007812 854.546875 267.574219 854.152344 260.5625 L 845.136719 304.363281 Z M 844.285156 308.492188 " fill-opacity="1" fill-rule="nonzero"/><path fill="#f5dfd4" d="M 855.054688 256.183594 L 854.152344 260.5625 C 854.027344 258.273438 854.261719 256.664062 855.054688 256.183594 Z M 855.054688 256.183594 " fill-opacity="1" fill-rule="nonzero"/><path fill="#e2c5b7" d="M 772.566406 353.03125 C 773.566406 353.050781 774.5625 353.09375 775.5625 353.15625 C 783.191406 353.621094 790.824219 355.144531 798.492188 355.675781 C 813.085938 356.683594 824.871094 355.71875 839.15625 352.453125 C 841.773438 351.851562 844.269531 351.421875 846.480469 350.800781 C 846.664062 345.769531 847 339.898438 847.425781 333.089844 C 848.15625 321.34375 850.371094 313.800781 852.871094 307.46875 C 856.871094 306.429688 860.007812 304.355469 861.105469 300.105469 C 859.964844 301.226562 858.757812 302.355469 857.644531 302.851562 C 856.566406 303.328125 855.457031 303.703125 854.320312 303.980469 C 851.375 304.710938 793.511719 315.847656 776.453125 294.824219 C 775.578125 298.617188 774.851562 302.4375 774.265625 306.289062 C 771.957031 321.421875 771.757812 337.019531 772.566406 353.03125 Z M 772.566406 353.03125 " fill-opacity="1" fill-rule="nonzero"/><path fill="#822316" d="M 853.691406 237.023438 C 860.375 240.851562 863.148438 245.15625 863.617188 247.949219 C 865.660156 260.21875 864.414062 273.597656 863.085938 285.179688 C 861.796875 296.402344 859.203125 307.605469 855.777344 316.726562 C 854.039062 321.355469 850.847656 326.570312 847.796875 330.28125 C 847.992188 324.164062 848.800781 319.558594 848.921875 313.4375 C 852.355469 304.34375 854.707031 291.726562 855.554688 284.316406 C 856.824219 273.28125 860.238281 259.957031 856.140625 249.3125 C 852.496094 239.84375 840.121094 239.238281 838.542969 236.007812 C 838.457031 235.824219 837.632812 233.617188 837.59375 233.414062 C 844.0625 231.886719 849.214844 234.457031 853.691406 237.023438 Z M 853.691406 237.023438 " fill-opacity="1" fill-rule="nonzero"/><path fill="#617695" d="M 741.4375 618.882812 C 779.613281 627.867188 839.003906 630.644531 881.320312 618.710938 C 882.261719 600.195312 877.328125 552.609375 870.902344 501.953125 C 861.9375 431.335938 850.0625 354.753906 847.121094 342.675781 C 847.121094 342.675781 835.058594 348.191406 821.015625 348.570312 C 809.742188 348.875 790.691406 347.691406 781.019531 347.007812 C 777.324219 346.75 775 346.5625 775 346.5625 C 746.929688 418.425781 740.617188 578.824219 741.4375 618.882812 Z M 741.4375 618.882812 " fill-opacity="1" fill-rule="nonzero"/><path fill="#822316" d="M 771.179688 349.234375 C 776.347656 349.234375 781.027344 347.570312 785.148438 344.25 C 791.355469 339.25 796.011719 330.640625 798.984375 318.664062 C 801.273438 309.449219 802.480469 298.324219 802.390625 287.328125 C 802.292969 275.988281 801.898438 262.917969 798.371094 251.308594 C 797.570312 248.667969 794.933594 242.207031 787.835938 239.300781 C 781.476562 236.703125 773.714844 237.859375 764.765625 242.742188 L 768.394531 249.394531 C 775.148438 245.710938 780.878906 244.644531 784.964844 246.316406 C 789.171875 248.039062 790.738281 252.261719 791.121094 253.511719 C 794.355469 264.15625 794.722656 276.578125 794.808594 287.390625 C 794.960938 305.417969 791.277344 329.582031 780.394531 338.347656 C 776.570312 341.429688 772.132812 342.339844 766.835938 341.140625 L 765.160156 348.53125 C 767.234375 349.003906 769.238281 349.234375 771.179688 349.234375 Z M 771.179688 349.234375 " fill-opacity="1" fill-rule="nonzero"/><path fill="#4f6177" d="M 741.4375 618.882812 C 779.613281 627.867188 839.003906 630.644531 881.320312 618.710938 C 882.261719 600.195312 877.328125 552.609375 870.902344 501.953125 C 868.957031 503.730469 866.941406 505.425781 864.703125 506.601562 C 857.804688 510.214844 849.046875 512.992188 841.234375 513.320312 C 818.515625 514.277344 803.355469 491.453125 796.898438 472.335938 C 787.292969 443.902344 783.234375 413.941406 780.632812 384.183594 C 779.679688 373.308594 779.554688 361.910156 780.488281 351.070312 C 780.5625 350.234375 780.761719 348.757812 781.019531 347.007812 C 777.324219 346.75 775 346.5625 775 346.5625 C 746.929688 418.425781 740.617188 578.824219 741.4375 618.882812 Z M 741.4375 618.882812 " fill-opacity="1" fill-rule="nonzero"/><path fill="#ffb278" d="M 858.5625 200.152344 C 858.628906 196.476562 856.453125 193.082031 853.886719 194.109375 C 846.359375 197.128906 847.925781 206.761719 847.925781 206.761719 C 848.097656 210.457031 852.113281 210.753906 853.921875 209.59375 C 856.214844 208.117188 858.496094 203.695312 858.5625 200.152344 Z M 858.5625 200.152344 " fill-opacity="1" fill-rule="nonzero"/><path fill="#e5804e" d="M 852.515625 197.671875 C 851.628906 199.28125 850.007812 202.949219 850.007812 202.949219 C 849.574219 205.839844 853.863281 205.664062 854.253906 202.214844 C 854.425781 200.671875 853.324219 199.222656 854.722656 198.308594 C 855.6875 197.683594 856.566406 198.75 856.96875 199.941406 C 857.371094 196.644531 853.90625 195.140625 852.515625 197.671875 Z M 852.515625 197.671875 " fill-opacity="1" fill-rule="nonzero"/><path fill="#ffb278" d="M 842.09375 158.730469 C 824.507812 142.679688 804.113281 157.742188 800.808594 178.550781 C 800.808594 178.550781 798.324219 197.914062 802.179688 207.207031 C 805.101562 214.246094 818.316406 229.863281 830.300781 229.226562 C 835.996094 228.921875 846.832031 216.953125 849.714844 208.808594 C 854.570312 195.085938 856.066406 171.480469 842.09375 158.730469 Z M 842.09375 158.730469 " fill-opacity="1" fill-rule="nonzero"/><path fill="#301f23" d="M 836.304688 187.378906 C 836.605469 185.597656 839.96875 184.984375 842.839844 185.0625 C 845.546875 185.132812 847.382812 186.527344 847.78125 188.050781 C 846.460938 186.804688 843.992188 186.640625 842.320312 186.925781 C 840.585938 187.222656 835.972656 188.8125 836.304688 187.378906 Z M 836.304688 187.378906 " fill-opacity="1" fill-rule="nonzero"/><path fill="#301f23" d="M 821.902344 188.601562 C 822.277344 186.890625 819.546875 185.605469 816.992188 185.0625 C 814.585938 184.550781 812.476562 185.445312 811.582031 186.765625 C 813.1875 185.898438 815.414062 186.273438 816.777344 186.894531 C 818.199219 187.539062 821.679688 189.992188 821.902344 188.601562 Z M 821.902344 188.601562 " fill-opacity="1" fill-rule="nonzero"/><path fill="#f72828" d="M 832.445312 215.148438 C 830.382812 216.117188 827.960938 216.136719 825.796875 215.101562 C 825.160156 216.898438 827.347656 218.324219 829.726562 218.238281 C 832.710938 218.128906 833.324219 215.199219 832.445312 215.148438 Z M 832.445312 215.148438 " fill-opacity="1" fill-rule="nonzero"/><path fill="#e52323" d="M 831.574219 214.644531 C 830.65625 214.542969 830.574219 215.285156 829.566406 215.304688 C 828.441406 215.246094 828.359375 214.261719 827.203125 214.828125 C 825.921875 215.40625 824.429688 214.59375 824.460938 214.578125 C 826.765625 217.082031 831.375 217.8125 834.324219 214.621094 C 832.882812 215.273438 832.140625 214.664062 831.574219 214.644531 Z M 831.574219 214.644531 " fill-opacity="1" fill-rule="nonzero"/><path fill="#e5804e" d="M 826.914062 207.542969 C 826.914062 207.542969 827.03125 207.554688 827.226562 207.597656 C 827.320312 207.625 827.441406 207.636719 827.570312 207.667969 C 827.695312 207.695312 827.84375 207.71875 828 207.75 C 828.15625 207.789062 828.328125 207.8125 828.503906 207.851562 C 828.675781 207.878906 828.863281 207.914062 829.050781 207.945312 C 829.242188 207.972656 829.433594 208.011719 829.628906 208.03125 C 829.828125 208.0625 830.019531 208.074219 830.214844 208.089844 C 830.3125 208.097656 830.40625 208.097656 830.503906 208.101562 C 830.601562 208.109375 830.695312 208.109375 830.785156 208.105469 C 830.878906 208.097656 830.972656 208.105469 831.0625 208.09375 C 831.148438 208.082031 831.234375 208.070312 831.324219 208.066406 C 831.414062 208.0625 831.488281 208.03125 831.574219 208.019531 C 831.65625 208.003906 831.738281 207.988281 831.808594 207.960938 C 831.886719 207.9375 831.960938 207.914062 832.03125 207.890625 C 832.101562 207.863281 832.164062 207.824219 832.230469 207.796875 C 832.371094 207.742188 832.480469 207.664062 832.585938 207.59375 C 832.640625 207.558594 832.691406 207.523438 832.734375 207.496094 C 832.777344 207.457031 832.816406 207.421875 832.851562 207.394531 C 832.996094 207.269531 833.097656 207.191406 833.097656 207.191406 C 833.097656 207.191406 833.085938 207.304688 833.035156 207.507812 C 833.023438 207.558594 833.007812 207.613281 832.992188 207.675781 C 832.972656 207.738281 832.9375 207.792969 832.90625 207.859375 C 832.871094 207.925781 832.832031 207.996094 832.792969 208.070312 C 832.753906 208.148438 832.6875 208.207031 832.632812 208.28125 C 832.570312 208.351562 832.507812 208.429688 832.429688 208.5 C 832.351562 208.5625 832.265625 208.625 832.179688 208.691406 C 832.089844 208.761719 831.992188 208.808594 831.886719 208.859375 C 831.785156 208.90625 831.679688 208.964844 831.566406 209 C 831.34375 209.070312 831.105469 209.136719 830.867188 209.15625 C 830.625 209.195312 830.382812 209.175781 830.144531 209.175781 C 829.90625 209.148438 829.667969 209.125 829.445312 209.066406 C 829.21875 209.019531 829.003906 208.945312 828.800781 208.871094 C 828.597656 208.792969 828.40625 208.707031 828.230469 208.617188 C 828.058594 208.515625 827.894531 208.429688 827.753906 208.324219 C 827.613281 208.226562 827.488281 208.132812 827.382812 208.035156 C 827.273438 207.945312 827.183594 207.859375 827.121094 207.785156 C 826.984375 207.636719 826.914062 207.542969 826.914062 207.542969 Z M 826.914062 207.542969 " fill-opacity="1" fill-rule="nonzero"/><path fill="#e5804e" d="M 845.988281 193.472656 C 845.070312 193.261719 843.746094 193.039062 841.730469 193.308594 C 840 193.523438 838.285156 194.238281 837.25 195 C 836.878906 195.269531 836.527344 195.636719 836.289062 195.921875 C 835.867188 196.417969 835.882812 197.289062 835.867188 197.40625 C 836.515625 197.445312 837.042969 196.785156 837.726562 196.78125 C 839.054688 196.785156 840.582031 196.597656 841.59375 196.351562 C 842.855469 196.042969 843.777344 195.710938 844.808594 195.273438 C 845.628906 194.9375 846.707031 195.199219 848.148438 194.746094 C 847.96875 194.058594 846.894531 193.695312 845.988281 193.472656 Z M 845.988281 193.472656 " fill-opacity="1" fill-rule="nonzero"/><path fill="#ffffff" d="M 848.148438 194.746094 C 846.707031 195.199219 845.792969 195.628906 844.972656 195.960938 C 843.945312 196.398438 843.019531 196.730469 841.757812 197.039062 C 840.746094 197.285156 839.21875 197.472656 837.890625 197.46875 C 837.207031 197.472656 836.515625 197.445312 835.867188 197.40625 C 835.875 197.398438 836.03125 197.105469 836.453125 196.613281 C 836.695312 196.324219 837.042969 195.957031 837.414062 195.6875 C 838.449219 194.925781 840.167969 194.210938 841.894531 193.996094 C 843.914062 193.730469 845.234375 193.949219 846.152344 194.160156 C 847.058594 194.382812 847.617188 194.609375 848.148438 194.746094 Z M 848.148438 194.746094 " fill-opacity="1" fill-rule="nonzero"/><path fill="#3f1411" d="M 844.972656 195.960938 C 843.945312 196.398438 843.019531 196.730469 841.757812 197.039062 C 840.746094 197.285156 839.21875 197.472656 837.890625 197.46875 C 837.589844 197.3125 837.042969 195.957031 837.414062 195.6875 C 838.449219 194.925781 840.167969 194.210938 841.894531 193.996094 C 843.914062 193.726562 845.234375 193.949219 846.152344 194.160156 C 846.160156 194.515625 845.21875 195.71875 844.972656 195.960938 Z M 844.972656 195.960938 " fill-opacity="1" fill-rule="nonzero"/><path fill="#ffffff" d="M 843.894531 195.277344 C 843.886719 195.582031 843.65625 195.871094 843.375 195.925781 C 843.09375 195.984375 842.871094 195.78125 842.875 195.480469 C 842.882812 195.175781 843.113281 194.886719 843.394531 194.832031 C 843.675781 194.773438 843.898438 194.972656 843.894531 195.277344 Z M 843.894531 195.277344 " fill-opacity="1" fill-rule="nonzero"/><path fill="#e5804e" d="M 819.179688 195.289062 C 818.417969 194.742188 817.289062 194.019531 815.324219 193.472656 C 813.648438 192.996094 811.792969 192.980469 810.539062 193.277344 C 810.09375 193.378906 809.628906 193.582031 809.296875 193.75 C 808.710938 194.039062 808.386719 194.847656 808.328125 194.949219 C 808.90625 195.242188 809.652344 194.839844 810.28125 195.101562 C 811.5 195.625 812.980469 196.050781 814.007812 196.21875 C 815.292969 196.429688 816.269531 196.488281 817.390625 196.488281 C 818.273438 196.5 819.164062 197.164062 820.667969 197.3125 C 820.773438 196.609375 819.925781 195.855469 819.179688 195.289062 Z M 819.179688 195.289062 " fill-opacity="1" fill-rule="nonzero"/><path fill="#ffffff" d="M 820.667969 197.3125 C 819.160156 197.164062 818.15625 197.199219 817.269531 197.1875 C 816.152344 197.183594 815.171875 197.128906 813.890625 196.917969 C 812.863281 196.75 811.382812 196.324219 810.164062 195.800781 C 809.53125 195.535156 808.90625 195.242188 808.324219 194.949219 C 808.335938 194.945312 808.59375 194.734375 809.175781 194.445312 C 809.511719 194.277344 809.976562 194.074219 810.421875 193.972656 C 811.671875 193.675781 813.53125 193.691406 815.207031 194.171875 C 817.167969 194.714844 818.300781 195.4375 819.0625 195.988281 C 819.808594 196.550781 820.230469 196.976562 820.667969 197.3125 Z M 820.667969 197.3125 " fill-opacity="1" fill-rule="nonzero"/><path fill="#3f1411" d="M 817.269531 197.1875 C 816.152344 197.183594 815.171875 197.128906 813.890625 196.917969 C 812.863281 196.75 811.382812 196.320312 810.164062 195.800781 C 809.945312 195.539062 809.976562 194.074219 810.421875 193.972656 C 811.671875 193.679688 813.53125 193.695312 815.207031 194.171875 C 817.167969 194.714844 818.300781 195.4375 819.0625 195.988281 C 818.925781 196.320312 817.589844 197.058594 817.269531 197.1875 Z M 817.269531 197.1875 " fill-opacity="1" fill-rule="nonzero"/><path fill="#ffffff" d="M 816.542969 196.132812 C 816.421875 196.410156 816.09375 196.585938 815.8125 196.527344 C 815.53125 196.472656 815.40625 196.199219 815.527344 195.921875 C 815.652344 195.644531 815.980469 195.46875 816.257812 195.527344 C 816.539062 195.585938 816.667969 195.855469 816.542969 196.132812 Z M 816.542969 196.132812 " fill-opacity="1" fill-rule="nonzero"/><path fill="#ffb278" d="M 793.207031 200.636719 C 792.921875 196.976562 795.09375 193.421875 797.949219 194.257812 C 806.324219 196.710938 805.171875 206.449219 805.171875 206.449219 C 805.199219 210.152344 800.839844 210.75 798.804688 209.722656 C 796.21875 208.417969 793.484375 204.175781 793.207031 200.636719 Z M 793.207031 200.636719 " fill-opacity="1" fill-rule="nonzero"/><path fill="#e5804e" d="M 799.652344 197.710938 C 800.707031 199.253906 802.683594 202.792969 802.683594 202.792969 C 803.320312 205.652344 798.640625 205.792969 798.019531 202.378906 C 797.738281 200.851562 798.859375 199.320312 797.28125 198.515625 C 796.195312 197.960938 795.296875 199.089844 794.933594 200.3125 C 794.304688 197.050781 797.992188 195.285156 799.652344 197.710938 Z M 799.652344 197.710938 " fill-opacity="1" fill-rule="nonzero"/><path fill="#1e1316" d="M 823.542969 159.941406 L 829.4375 149.835938 C 841.375 146.886719 851.730469 152.378906 856.96875 163.257812 C 861.878906 173.453125 856.21875 191.796875 851.355469 201.714844 C 852.246094 194.410156 852.515625 174.996094 846.59375 169.730469 C 839.003906 162.976562 823.84375 180.664062 823.542969 159.941406 Z M 823.542969 159.941406 " fill-opacity="1" fill-rule="nonzero"/><path fill="#301f23" d="M 801.949219 203.960938 C 803.886719 198.066406 802.84375 193.59375 804.699219 187.308594 C 806.289062 181.921875 809.996094 176.453125 820.476562 176.261719 C 825.964844 176.164062 834.308594 176.214844 838.859375 165.019531 C 838.910156 164.902344 838.957031 164.78125 839.003906 164.660156 C 841.730469 157.6875 840.886719 148.992188 831.707031 146.695312 C 826.652344 145.433594 814.863281 146.695312 814.863281 146.695312 C 806.675781 147.410156 801.546875 150.800781 798.308594 155.492188 C 796.4375 158.203125 795.199219 161.351562 794.371094 164.660156 C 791.484375 176.210938 799.84375 192.503906 801.949219 203.960938 Z M 801.949219 203.960938 " fill-opacity="1" fill-rule="nonzero"/><path fill="#1e1316" d="M 801.949219 203.960938 C 803.886719 198.066406 802.84375 193.59375 804.699219 187.308594 C 806.289062 181.921875 809.996094 176.453125 820.476562 176.261719 C 825.964844 176.164062 834.308594 176.214844 838.859375 165.019531 L 837.601562 161.011719 C 836.234375 163.832031 835.839844 166.039062 832.546875 167.179688 C 829.453125 168.253906 825.613281 167.796875 822.386719 167.46875 C 818.679688 167.09375 815.214844 167.105469 811.789062 168.589844 C 808.910156 169.839844 807.976562 172.113281 805.65625 173.898438 C 804.636719 171.03125 806.292969 168.171875 806.953125 165.539062 C 803.488281 167.332031 802.046875 171.515625 801.332031 175.023438 C 798.371094 171.851562 797.945312 165.570312 797.742188 161.363281 C 797.636719 159.242188 797.890625 157.335938 798.308594 155.492188 C 796.4375 158.203125 795.199219 161.351562 794.371094 164.660156 C 791.484375 176.210938 799.84375 192.503906 801.949219 203.960938 Z M 801.949219 203.960938 " fill-opacity="1" fill-rule="nonzero"/><path fill="#ffffff" d="M 834.152344 196.957031 C 834.152344 192.023438 838.167969 188.007812 843.101562 188.007812 C 848.035156 188.007812 852.050781 192.023438 852.050781 196.957031 C 852.050781 201.890625 848.035156 205.90625 843.101562 205.90625 C 838.167969 205.90625 834.152344 201.890625 834.152344 196.957031 Z M 835.507812 196.957031 C 835.507812 201.144531 838.914062 204.550781 843.101562 204.550781 C 847.289062 204.550781 850.695312 201.144531 850.695312 196.957031 C 850.695312 192.769531 847.289062 189.363281 843.101562 189.363281 C 838.914062 189.363281 835.507812 192.769531 835.507812 196.957031 Z M 835.507812 196.957031 " fill-opacity="1" fill-rule="nonzero"/><path fill="#ffffff" d="M 808.800781 196.820312 C 808.800781 191.886719 812.8125 187.875 817.75 187.875 C 822.683594 187.875 826.695312 191.886719 826.695312 196.820312 C 826.695312 201.757812 822.683594 205.769531 817.75 205.769531 C 812.8125 205.769531 808.800781 201.757812 808.800781 196.820312 Z M 810.15625 196.820312 C 810.15625 201.007812 813.5625 204.414062 817.75 204.414062 C 821.933594 204.414062 825.339844 201.007812 825.339844 196.820312 C 825.339844 192.636719 821.933594 189.230469 817.75 189.230469 C 813.5625 189.230469 810.15625 192.632812 810.15625 196.820312 Z M 810.15625 196.820312 " fill-opacity="1" fill-rule="nonzero"/><path fill="#ffffff" d="M 826.453125 197.054688 C 827.371094 195.628906 828.492188 194.835938 829.792969 194.703125 C 831.265625 194.554688 832.925781 195.300781 834.347656 196.753906 L 835.316406 195.804688 C 833.578125 194.03125 831.570312 193.160156 829.65625 193.355469 C 827.949219 193.527344 826.445312 194.554688 825.3125 196.320312 Z M 826.453125 197.054688 " fill-opacity="1" fill-rule="nonzero"/><path fill="#ffb278" d="M 773.867188 448.515625 C 775.1875 449.660156 777.765625 450.136719 779.429688 450.71875 C 781.078125 451.296875 782.789062 452.105469 784.429688 452.539062 C 783.5625 454.652344 780.828125 456.34375 778.722656 457.011719 C 777.222656 457.488281 773.410156 459.292969 772.59375 457.589844 Z M 773.867188 448.515625 " fill-opacity="1" fill-rule="nonzero"/><path fill="#2f4c1c" d="M 811.199219 396.453125 L 745.253906 383.902344 L 745.054688 411.949219 L 809.074219 405.441406 Z M 811.199219 396.453125 " fill-opacity="1" fill-rule="nonzero"/><path fill="#e8e2dd" d="M 746.863281 385.296875 L 810.078125 396.53125 L 810.582031 397.074219 L 806.558594 403.890625 L 746.460938 389.945312 Z M 746.863281 385.296875 " fill-opacity="1" fill-rule="nonzero"/><path fill="#47722b" d="M 801.695312 396.453125 L 740.632812 385.449219 L 740.527344 447.722656 L 806 462.113281 Z M 801.695312 396.453125 " fill-opacity="1" fill-rule="nonzero"/><path fill="#6baa43" d="M 801.695312 396.453125 C 801.835938 396.589844 801.984375 396.71875 802.15625 396.839844 C 803.105469 397.523438 804.476562 397.949219 806 397.949219 C 807.4375 397.949219 808.734375 397.570312 809.675781 396.957031 C 809.90625 396.808594 810.113281 396.644531 810.296875 396.46875 C 810.300781 396.464844 810.308594 396.457031 810.3125 396.453125 L 811.199219 396.453125 L 811.199219 458.714844 C 811.199219 459.65625 810.621094 460.507812 809.679688 461.121094 C 808.734375 461.734375 807.4375 462.113281 806 462.113281 C 803.128906 462.113281 800.800781 460.59375 800.800781 458.714844 L 800.800781 396.453125 Z M 801.695312 396.453125 " fill-opacity="1" fill-rule="nonzero"/><path fill="#fffbf8" d="M 802.15625 396.839844 L 802.15625 457.320312 C 802.15625 459.222656 803.980469 460.757812 806.226562 460.757812 C 807.351562 460.757812 808.367188 460.375 809.105469 459.753906 C 809.839844 459.132812 810.296875 458.269531 810.296875 457.320312 L 810.296875 396.46875 C 810.117188 396.644531 809.90625 396.808594 809.679688 396.957031 C 808.734375 397.570312 807.4375 397.949219 806 397.949219 C 804.476562 397.949219 803.105469 397.523438 802.15625 396.839844 Z M 802.15625 396.839844 " fill-opacity="1" fill-rule="nonzero"/><path fill="#f72e1e" d="M 764.460938 396.902344 L 764.460938 444.910156 L 752.691406 442.164062 L 752.667969 441.292969 L 752.667969 394.640625 Z M 764.460938 396.902344 " fill-opacity="1" fill-rule="nonzero"/><path fill="#ffb278" d="M 756.058594 430.570312 C 756.632812 428.367188 757.105469 425.84375 757.40625 423.617188 L 768.277344 427.734375 C 769.8125 432.890625 776.625 437.164062 777.164062 443.363281 C 777.5 447.195312 779.359375 450.90625 777.9375 451.453125 C 774.175781 452.902344 774.207031 444.894531 772.851562 443.617188 C 773.082031 445.769531 774.816406 457.347656 774.222656 457.898438 C 772.988281 459.046875 770.652344 458.609375 769.546875 457.21875 C 768.890625 457.796875 767.855469 458.144531 766.921875 458.097656 C 766.089844 458.058594 765.257812 457.277344 764.542969 457.292969 C 763.558594 457.316406 762.75 458.058594 761.402344 457.664062 C 760.503906 457.398438 759.792969 456.710938 759.003906 456.257812 C 756.234375 457.503906 756.300781 453.78125 755.6875 451.96875 C 755.015625 449.984375 754.746094 435.578125 756.058594 430.570312 Z M 756.058594 430.570312 " fill-opacity="1" fill-rule="nonzero"/><path fill="#ffb278" d="M 764.425781 381.160156 C 766.511719 381.621094 770 382.011719 772.960938 381.621094 C 771.222656 399.164062 768.695312 425.785156 769.472656 435.5 C 766.355469 435.777344 761.316406 435.359375 756.472656 435.269531 C 756.472656 427.867188 756.984375 397.867188 756.472656 377.921875 C 759.964844 379.308594 760.605469 380.3125 764.425781 381.160156 Z M 764.425781 381.160156 " fill-opacity="1" fill-rule="nonzero"/><path fill="#ffb278" d="M 770.378906 248.636719 C 777.335938 243.699219 791.636719 249.089844 788.019531 278.492188 C 787.570312 282.128906 782.40625 304.761719 781.6875 309.253906 C 778.066406 331.871094 769.808594 411.136719 769.40625 419.117188 C 765.339844 417.976562 760.980469 417.832031 756.875 416.84375 C 756.15625 402.613281 754.929688 259.601562 770.378906 248.636719 Z M 770.378906 248.636719 " fill-opacity="1" fill-rule="nonzero"/><g clip-path="url(#1bd1b98abd)"><path fill="#68300b" d="M 884.621094 425.871094 C 883.730469 405.703125 886.003906 381.996094 891.542969 353.664062 C 897.683594 322.234375 906.804688 289.652344 918.660156 256.832031 L 918.90625 256.152344 C 923.105469 244.519531 927.074219 233.527344 932.8125 222.71875 C 933.65625 221.128906 936.253906 217.046875 939.140625 213.351562 C 944.054688 207.0625 950.582031 201.464844 950.582031 201.464844 C 949.363281 199.898438 947.59375 199.183594 945.59375 199.453125 C 943.59375 199.726562 940.222656 200.992188 934.058594 208.832031 C 930.601562 213.230469 927.792969 217.734375 926.832031 219.542969 C 920.832031 230.84375 916.773438 242.089844 912.472656 253.992188 L 912.230469 254.671875 C 900.238281 287.867188 891.007812 320.832031 884.792969 352.652344 C 879.246094 381.027344 876.910156 404.949219 877.6875 425.457031 C 880 425.566406 882.316406 425.691406 884.621094 425.871094 Z M 884.621094 425.871094 " fill-opacity="1" fill-rule="nonzero"/></g><g clip-path="url(#fbe53da4cd)"><path fill="#260f0e" d="M 890.808594 689.199219 C 894.554688 691.847656 921.390625 691.300781 929.902344 689.886719 C 929.929688 689.882812 929.953125 689.878906 929.976562 689.875 C 931.363281 689.640625 932.328125 689.375 932.71875 689.085938 C 932.75 689.0625 932.777344 689.039062 932.800781 689.015625 C 933.925781 687.917969 933.609375 683.4375 932.679688 678.078125 C 931.183594 669.472656 928.105469 658.605469 926.886719 655.851562 L 915.058594 657.359375 C 907.730469 675.683594 887.5625 677.398438 890.808594 689.199219 Z M 890.808594 689.199219 " fill-opacity="1" fill-rule="nonzero"/></g><g clip-path="url(#716ca2152b)"><path fill="#ffffff" d="M 932.800781 689.015625 C 932.78125 689.039062 932.75 689.066406 932.71875 689.089844 C 932.328125 689.375 931.359375 689.640625 929.980469 689.875 C 929.953125 689.878906 929.925781 689.882812 929.902344 689.886719 C 921.390625 691.300781 894.554688 691.847656 890.808594 689.199219 C 890.28125 687.277344 890.375 685.621094 890.933594 684.121094 C 890.972656 684.324219 891.023438 684.53125 891.082031 684.742188 C 894.828125 687.390625 921.660156 686.84375 930.175781 685.429688 C 930.199219 685.425781 930.222656 685.417969 930.25 685.417969 C 931.632812 685.183594 932.601562 684.917969 932.992188 684.628906 C 933 684.625 933.203125 684.574219 933.488281 684.503906 C 933.605469 686.761719 933.421875 688.40625 932.800781 689.015625 Z M 932.800781 689.015625 " fill-opacity="1" fill-rule="nonzero"/></g><g clip-path="url(#38a48624cb)"><path fill="#ffb278" d="M 876.019531 314.144531 C 882.957031 312.921875 893.828125 320.164062 896.695312 325.542969 C 906.496094 343.925781 908.335938 368.726562 919.550781 386.097656 L 909.613281 393.203125 C 894.648438 376.070312 878.1875 354.757812 871.207031 333.097656 C 869.304688 327.199219 867.574219 315.636719 876.019531 314.144531 Z M 876.019531 314.144531 " fill-opacity="1" fill-rule="nonzero"/></g><g clip-path="url(#31120388f5)"><path fill="#ffb278" d="M 876.5 279.933594 C 878.597656 271.585938 881.425781 266.121094 884.664062 258.148438 C 887.019531 252.34375 889.285156 242.355469 894.375 238.414062 L 914.394531 267.601562 C 910.820312 271.640625 893.238281 328.359375 888.089844 332.175781 C 882.351562 336.429688 875.957031 340.609375 872.191406 335.28125 C 864.640625 324.601562 873.5625 291.625 876.5 279.933594 Z M 876.5 279.933594 " fill-opacity="1" fill-rule="nonzero"/></g><g clip-path="url(#475209f0b4)"><path fill="#68300b" d="M 921.898438 423.074219 C 924.894531 417.945312 925.417969 412.5625 923.371094 407.921875 C 921.246094 403.101562 916.535156 399.589844 910.449219 398.285156 C 897.378906 395.484375 895.117188 401.476562 892.25 409.0625 C 891.6875 410.554688 891.105469 412.097656 890.390625 413.746094 L 894.507812 415.535156 C 895.265625 413.789062 895.898438 412.121094 896.453125 410.648438 C 899.191406 403.398438 900.214844 400.683594 909.507812 402.675781 C 914.167969 403.675781 917.726562 406.25 919.261719 409.734375 C 920.714844 413.023438 920.269531 416.953125 918.019531 420.808594 Z M 921.898438 423.074219 " fill-opacity="1" fill-rule="nonzero"/></g><g clip-path="url(#229bf3468e)"><path fill="#68300b" d="M 852.722656 483.453125 C 872.175781 495.800781 895.992188 505.578125 918.824219 504.089844 L 937.351562 421.558594 C 934.003906 419.886719 928.488281 418.097656 922.035156 416.433594 C 920.03125 415.917969 917.929688 415.414062 915.777344 414.929688 C 908.453125 413.277344 900.507812 411.859375 893.417969 410.964844 C 891.027344 410.664062 888.710938 410.621094 886.601562 410.246094 C 882.90625 409.589844 877.851562 410.714844 875.605469 412.960938 C 864.855469 428.03125 850.984375 470.121094 852.722656 483.453125 Z M 852.722656 483.453125 " fill-opacity="1" fill-rule="nonzero"/></g><g clip-path="url(#af675a065b)"><path fill="#ad4b14" d="M 897.375 460.949219 L 903.242188 461.535156 C 904.273438 451.148438 906.351562 443.28125 910.414062 434.378906 C 913.417969 427.792969 916.949219 423.136719 921.042969 417.75 C 921.371094 417.316406 921.699219 416.878906 922.035156 416.433594 C 920.027344 415.917969 917.929688 415.414062 915.777344 414.929688 C 911.863281 420.097656 908.171875 425.082031 905.050781 431.933594 C 900.757812 441.339844 898.464844 450.019531 897.375 460.949219 Z M 897.375 460.949219 " fill-opacity="1" fill-rule="nonzero"/></g><path fill="#ad4b14" d="M 870.988281 452.527344 L 876.855469 453.109375 C 877.886719 442.726562 879.964844 434.859375 884.027344 425.953125 C 886.722656 420.046875 889.84375 415.6875 893.417969 410.960938 C 891.027344 410.660156 888.738281 410.417969 886.601562 410.246094 C 883.730469 414.191406 881.035156 418.3125 878.664062 423.511719 C 874.371094 432.917969 872.078125 441.597656 870.988281 452.527344 Z M 870.988281 452.527344 " fill-opacity="1" fill-rule="nonzero"/><g clip-path="url(#7f9c490236)"><path fill="#3b3348" d="M 896.621094 232.921875 C 901.921875 223.859375 916.785156 202.867188 926.457031 219.738281 C 930.105469 226.105469 929.628906 237.144531 928.238281 243.996094 C 926.0625 254.746094 923.371094 266.648438 918.234375 276.640625 L 909.589844 298.773438 C 900.097656 296.804688 882.753906 291.542969 873.882812 287.125 C 879.046875 268.453125 887.246094 248.957031 896.621094 232.921875 Z M 896.621094 232.921875 " fill-opacity="1" fill-rule="nonzero"/></g><path fill="#f9a56b" d="M 732.617188 340.464844 C 729.40625 348.4375 728.75 359.085938 728.71875 367.882812 L 740.972656 371.6875 C 740.972656 362.289062 738.4375 338.296875 732.617188 340.464844 Z M 732.617188 340.464844 " fill-opacity="1" fill-rule="nonzero"/><path fill="#f9a56b" d="M 745.5625 381.429688 C 744.867188 378.8125 743.539062 374.777344 743.085938 372.109375 C 742.398438 368.015625 739.707031 365.347656 737.109375 362.253906 L 732.601562 374.089844 C 731.707031 379.648438 737.28125 381.828125 739.800781 384.917969 C 741.449219 386.941406 746.890625 392.820312 748.265625 387.628906 C 748.683594 386.050781 745.980469 383.007812 745.5625 381.429688 Z M 745.5625 381.429688 " fill-opacity="1" fill-rule="nonzero"/><path fill="#0e0e11" d="M 696.585938 685.707031 C 686.722656 691.34375 648.050781 687.070312 644.175781 684.863281 C 643.980469 684.378906 643.886719 683.664062 643.855469 682.804688 C 643.820312 681.9375 643.851562 680.925781 643.910156 679.875 C 644.125 675.886719 644.707031 671.261719 643.609375 671.339844 L 665.589844 664.859375 C 668.738281 670.933594 669.875 664.191406 674.042969 669.367188 C 677.542969 673.71875 684.1875 675.847656 690.667969 676.691406 C 693.875 677.109375 696.019531 678.320312 697.214844 679.746094 C 697.710938 680.339844 698.042969 680.964844 698.21875 681.589844 C 698.691406 683.230469 698.09375 684.847656 696.585938 685.707031 Z M 696.585938 685.707031 " fill-opacity="1" fill-rule="nonzero"/><path fill="#ffffff" d="M 698.21875 681.589844 C 698.128906 682.699219 697.515625 683.6875 696.445312 684.296875 C 686.582031 689.933594 647.910156 685.664062 644.035156 683.453125 C 643.960938 683.265625 643.902344 683.050781 643.855469 682.804688 C 643.820312 681.933594 643.851562 680.925781 643.910156 679.871094 C 648.570312 682.105469 686.421875 686.203125 696.164062 680.636719 C 696.589844 680.394531 696.941406 680.089844 697.214844 679.746094 C 697.710938 680.335938 698.042969 680.964844 698.21875 681.589844 Z M 698.21875 681.589844 " fill-opacity="1" fill-rule="nonzero"/><path fill="#18181e" d="M 673.265625 662.574219 C 671.917969 659.34375 670.453125 658.242188 666.058594 658.597656 C 662.542969 658.882812 659.621094 662.769531 660.136719 666.117188 C 660.570312 668.945312 659.414062 670.511719 660.367188 672.921875 L 679.679688 673.589844 C 676.296875 669.648438 674.578125 665.738281 673.265625 662.574219 Z M 673.265625 662.574219 " fill-opacity="1" fill-rule="nonzero"/><path fill="#313944" d="M 723.441406 448.480469 C 717.6875 469.921875 682.734375 612.332031 674.097656 654.378906 C 673.945312 656.1875 673.796875 657.992188 673.699219 659.722656 C 673.472656 663.8125 671.515625 664.835938 667.703125 665.628906 C 663.523438 666.492188 659.320312 667.457031 655.398438 669.433594 C 655.339844 669.464844 655.277344 669.496094 655.21875 669.527344 C 654.765625 669.765625 654.253906 670.058594 653.707031 670.378906 C 650.828125 672.058594 646.902344 674.398438 644.605469 672.34375 C 642.484375 670.453125 643.480469 660.171875 643.617188 657.4375 C 645.667969 616.984375 659.035156 570.957031 659.757812 567.390625 C 669.585938 519.15625 670.664062 453.382812 669.546875 409.128906 C 669.277344 398.398438 661.839844 393.300781 663.09375 384.089844 C 665.527344 366.214844 667.773438 360.597656 676.6875 340.746094 L 740.347656 380.851562 C 737.871094 404.574219 729.640625 425.371094 723.441406 448.480469 Z M 723.441406 448.480469 " fill-opacity="1" fill-rule="nonzero"/><path fill="#18181e" d="M 726.484375 365.15625 C 726.484375 380.671875 725.007812 396.757812 722.429688 409.285156 L 722.265625 410.070312 L 721.484375 410.261719 C 720.503906 410.496094 718.574219 410.746094 716.558594 410.910156 C 715.707031 410.980469 714.835938 411.035156 714.019531 411.0625 C 714.054688 410.210938 714.085938 409.363281 714.113281 408.515625 C 714.910156 408.484375 715.789062 408.433594 716.65625 408.363281 C 717.910156 408.261719 719.148438 408.125 720.109375 407.957031 C 722.554688 395.710938 723.949219 380.171875 723.949219 365.15625 Z M 726.484375 365.15625 " fill-opacity="1" fill-rule="nonzero"/><path fill="#18181e" d="M 713.296875 441.714844 C 713.296875 441.714844 713.75 417.355469 714.019531 411.0625 C 714.054688 410.210938 714.085938 409.363281 714.113281 408.515625 C 714.542969 395.304688 713.839844 382.980469 711.019531 376.875 L 718.367188 375.59375 C 721.625 382.636719 713.699219 437.964844 713.296875 441.714844 Z M 713.296875 441.714844 " fill-opacity="1" fill-rule="nonzero"/><path fill="#18181e" d="M 720.753906 688.273438 C 709.449219 693.910156 665.128906 689.636719 660.6875 687.429688 C 660.464844 686.945312 660.355469 686.226562 660.320312 685.371094 C 660.28125 684.5 660.320312 683.492188 660.382812 682.4375 C 660.628906 678.453125 661.296875 673.828125 660.039062 673.902344 L 685.230469 667.421875 C 688.835938 673.496094 690.140625 666.753906 694.917969 671.929688 C 698.933594 676.285156 706.542969 678.410156 713.972656 679.257812 C 717.648438 679.675781 720.105469 680.886719 721.476562 682.3125 C 722.042969 682.902344 722.421875 683.53125 722.625 684.15625 C 723.167969 685.792969 722.484375 687.410156 720.753906 688.273438 Z M 720.753906 688.273438 " fill-opacity="1" fill-rule="nonzero"/><path fill="#ffffff" d="M 722.628906 684.15625 C 722.519531 685.265625 721.820312 686.253906 720.59375 686.863281 C 709.289062 692.5 664.96875 688.230469 660.527344 686.019531 C 660.441406 685.832031 660.375 685.617188 660.324219 685.371094 C 660.285156 684.5 660.320312 683.492188 660.382812 682.4375 C 665.726562 684.671875 709.105469 688.769531 720.269531 683.203125 C 720.757812 682.960938 721.160156 682.660156 721.476562 682.3125 C 722.042969 682.902344 722.421875 683.53125 722.628906 684.15625 Z M 722.628906 684.15625 " fill-opacity="1" fill-rule="nonzero"/><path fill="#384150" d="M 712.597656 437.570312 C 710.554688 459.675781 690.597656 614.835938 686.371094 657.550781 C 686.410156 659.367188 686.453125 661.175781 686.535156 662.910156 C 686.734375 667 684.894531 668.222656 681.183594 669.402344 C 677.113281 670.695312 673.035156 672.09375 669.339844 674.464844 C 669.28125 674.503906 669.226562 674.539062 669.171875 674.578125 C 668.746094 674.859375 668.265625 675.207031 667.753906 675.582031 C 665.066406 677.550781 661.40625 680.289062 658.90625 678.480469 C 656.601562 676.820312 656.371094 666.496094 656.378906 663.757812 C 656.390625 658.136719 657.449219 647.300781 657.785156 643.46875 L 658.007812 643.535156 C 658.453125 621.175781 662.082031 591.332031 662.429688 587.710938 C 667.195312 538.71875 662.085938 458 656.378906 414.101562 C 654.996094 403.457031 647.070312 399.15625 647.359375 389.867188 C 647.925781 371.835938 649.574219 366.015625 656.378906 345.347656 L 717.382812 356.0625 C 717.382812 379.914062 714.679688 415.136719 712.597656 437.570312 Z M 712.597656 437.570312 " fill-opacity="1" fill-rule="nonzero"/><path fill="#18181e" d="M 673.566406 507.257812 C 673.226562 516.96875 673.070312 526.917969 672.917969 536.539062 C 672.71875 549.292969 672.511719 562.480469 671.875 575.320312 C 671.390625 585.152344 670.46875 595.066406 669.578125 604.65625 C 668.738281 613.667969 667.871094 622.992188 667.367188 632.246094 C 666.695312 644.554688 667.917969 662.289062 669.339844 674.464844 C 669.285156 674.46875 669.226562 674.511719 669.171875 674.578125 C 668.746094 674.859375 668.265625 675.207031 667.757812 675.582031 C 667.71875 675.421875 667.683594 675.242188 667.648438 675.027344 C 666.230469 662.792969 665 644.519531 665.675781 632.152344 C 666.183594 622.867188 667.054688 613.527344 667.890625 604.496094 C 668.78125 594.929688 669.703125 585.03125 670.1875 575.238281 C 670.820312 562.425781 671.027344 549.25 671.230469 536.511719 C 671.378906 526.882812 671.539062 516.925781 671.875 507.199219 C 672.371094 493.09375 671.4375 478.800781 670.539062 464.976562 C 669.8125 453.84375 669.0625 442.332031 669.058594 430.980469 C 669.058594 423.824219 668.640625 416.46875 668.238281 409.355469 C 667.492188 396.207031 666.722656 382.609375 668.503906 369.46875 L 670.179688 369.691406 C 668.417969 382.675781 669.183594 396.1875 669.925781 409.257812 C 670.328125 416.394531 670.75 423.777344 670.75 430.980469 C 670.753906 442.273438 671.5 453.757812 672.222656 464.867188 C 673.128906 478.734375 674.0625 493.066406 673.566406 507.257812 Z M 673.566406 507.257812 " fill-opacity="1" fill-rule="nonzero"/><path fill="#18181e" d="M 694.023438 665.140625 C 692.488281 661.910156 690.804688 660.808594 685.769531 661.164062 C 681.738281 661.449219 678.390625 665.335938 678.980469 668.683594 C 679.476562 671.511719 678.15625 673.078125 679.246094 675.488281 L 701.378906 676.160156 C 697.503906 672.214844 695.535156 668.304688 694.023438 665.140625 Z M 694.023438 665.140625 " fill-opacity="1" fill-rule="nonzero"/><path fill="#18181e" d="M 672.933594 404.25 C 672.3125 404.25 671.710938 404.242188 671.125 404.238281 C 670.582031 404.234375 670.054688 404.230469 669.546875 404.230469 L 669.546875 401.695312 C 670.058594 401.695312 670.59375 401.699219 671.144531 401.703125 C 677.707031 401.75 685.875 401.8125 689.945312 395.816406 C 693.523438 390.542969 693.375 381.828125 693.253906 374.824219 C 693.234375 373.574219 693.214844 372.394531 693.214844 371.265625 L 695.75 371.265625 C 695.75 372.371094 695.769531 373.542969 695.792969 374.78125 C 695.917969 382.140625 696.074219 391.300781 692.042969 397.242188 C 687.632812 403.746094 679.484375 404.25 672.933594 404.25 Z M 672.933594 404.25 " fill-opacity="1" fill-rule="nonzero"/><path fill="#c7c7dd" d="M 733.015625 266.742188 C 738.0625 264.933594 743.015625 262.835938 747.796875 260.453125 C 747.742188 246.570312 742.28125 230.808594 737.484375 217.917969 C 735.511719 212.625 732.347656 206.125 728.28125 202.191406 C 724.84375 198.859375 704.859375 193.816406 704.859375 193.816406 C 695.199219 197.378906 691.902344 207.945312 691.183594 212.636719 C 690.121094 219.570312 691.453125 227.980469 693.035156 234.835938 C 695.992188 247.621094 700.65625 260.484375 705.863281 272.484375 C 715.03125 272.039062 724.324219 269.847656 733.015625 266.742188 Z M 733.015625 266.742188 " fill-opacity="1" fill-rule="nonzero"/><path fill="#dadaef" d="M 741.984375 257.914062 C 742.035156 265.363281 739.839844 265.003906 738.601562 272.390625 C 738.558594 272.632812 738.519531 272.875 738.484375 273.117188 C 738.46875 273.226562 738.453125 273.339844 738.4375 273.453125 C 735.964844 290.972656 738.191406 377.746094 738.09375 379.722656 C 737.277344 379.964844 736.484375 380.199219 735.714844 380.421875 C 722.136719 383.542969 709.695312 384.367188 694.238281 382.734375 C 675.199219 380.71875 660.003906 374.71875 644.609375 365.457031 C 660.410156 335.632812 650.503906 289.507812 646.082031 257.515625 C 643.964844 242.214844 638.460938 216.410156 643.824219 201.410156 C 643.945312 201.066406 644.074219 200.722656 644.203125 200.390625 C 649.128906 187.503906 657.875 181.136719 673.671875 181.390625 L 674.183594 181.390625 L 715.570312 189.566406 C 718.550781 195.355469 724.9375 200.519531 728.722656 206.042969 C 732.546875 211.617188 741.925781 249.867188 741.984375 257.914062 Z M 741.984375 257.914062 " fill-opacity="1" fill-rule="nonzero"/><path fill="#c7c7dd" d="M 738.601562 272.390625 C 738.558594 272.632812 738.519531 272.875 738.484375 273.117188 C 738.46875 273.226562 738.453125 273.339844 738.4375 273.453125 C 735.964844 290.972656 738.191406 377.746094 738.09375 379.722656 C 737.277344 379.964844 736.484375 380.199219 735.714844 380.421875 C 719.289062 385.121094 712.855469 384.703125 694.238281 382.734375 C 675.199219 380.71875 660.003906 374.71875 644.609375 365.457031 C 660.410156 335.632812 650.503906 289.507812 646.082031 257.515625 C 643.964844 242.214844 638.460938 216.410156 643.824219 201.410156 C 643.945312 201.066406 644.070312 200.722656 644.203125 200.390625 L 657.773438 194.089844 C 653.691406 202.007812 683.296875 212.675781 684.261719 221.738281 C 685.414062 232.628906 686.78125 245.179688 687.105469 256.289062 C 687.511719 270.105469 693.339844 278.085938 710.890625 278.105469 C 720.273438 278.113281 729.835938 276.113281 738.601562 272.390625 Z M 738.601562 272.390625 " fill-opacity="1" fill-rule="nonzero"/><path fill="#f8f8ff" d="M 710.121094 185.722656 L 691.101562 203.894531 C 695.203125 212.355469 715.515625 219.429688 723.21875 213.613281 C 732.953125 206.273438 715.972656 190.234375 710.121094 185.722656 Z M 710.121094 185.722656 " fill-opacity="1" fill-rule="nonzero"/><path fill="#3d2726" d="M 736.527344 107.140625 C 734.578125 105.152344 731.558594 106.105469 729.417969 104.894531 L 727.429688 106.695312 C 729.09375 108.382812 730.109375 109.378906 731.195312 111.648438 C 732.179688 113.695312 733.136719 115.738281 733.757812 117.972656 C 734.992188 122.398438 734.15625 127.15625 735.277344 131.425781 C 737.867188 127.410156 739.199219 122.425781 740.375 117.585938 C 741.953125 111.070312 738.441406 109.09375 736.527344 107.140625 Z M 736.527344 107.140625 " fill-opacity="1" fill-rule="nonzero"/><path fill="#3d2726" d="M 690.3125 153.898438 L 685.746094 153.328125 C 685.761719 155.480469 684.519531 153.65625 684.222656 155.804688 C 683.941406 157.816406 683.519531 164.421875 684.820312 165.863281 C 686.71875 167.960938 688.828125 168.375 689.691406 164.800781 C 690.574219 161.148438 690.324219 157.078125 690.3125 153.898438 Z M 690.3125 153.898438 " fill-opacity="1" fill-rule="nonzero"/><path fill="#f9a56b" d="M 725.082031 158.597656 C 724.867188 158.773438 724.675781 159.15625 724.503906 159.683594 C 723.542969 162.660156 723.242188 170.300781 722.542969 172.808594 C 721.640625 176.035156 720.820312 179.433594 719.914062 182.746094 C 719.539062 184.109375 719.152344 185.453125 718.738281 186.765625 C 717.355469 191.164062 717.070312 193.117188 719.308594 197.507812 C 720.640625 200.117188 724.503906 207.503906 720.515625 209.351562 C 703.714844 217.136719 682.019531 185.390625 667.085938 181.726562 C 672.441406 179.753906 682.835938 180.460938 685.234375 172.550781 C 686.507812 168.367188 688.21875 163.289062 688.21875 157.707031 C 688.21875 154.765625 687.878906 152.730469 687.265625 150.222656 L 716.265625 156.949219 Z M 725.082031 158.597656 " fill-opacity="1" fill-rule="nonzero"/><path fill="#d86f41" d="M 724.886719 158.351562 C 723.921875 161.328125 723.625 168.96875 722.925781 171.472656 C 722.023438 174.703125 721.199219 178.101562 720.292969 181.414062 C 697.800781 184.164062 686.507812 151.425781 687.078125 146.855469 L 716.648438 155.617188 Z M 724.886719 158.351562 " fill-opacity="1" fill-rule="nonzero"/><path fill="#f9a56b" d="M 737.253906 131.441406 C 736.113281 127.246094 737.566406 122.164062 736.585938 117.835938 C 732.695312 100.730469 718.441406 98.292969 718.441406 98.292969 C 713.714844 96.792969 706.667969 97.480469 701.882812 98.417969 C 682.234375 102.273438 676.492188 120.121094 683.839844 137.53125 C 689.257812 150.351562 687.167969 165.816406 707.824219 174.265625 C 712.011719 175.980469 720.199219 178.074219 725.71875 176.742188 C 731.824219 175.269531 732.757812 170.386719 734.664062 166.84375 C 738.664062 159.417969 740.046875 151.679688 740.140625 143.972656 C 740.199219 138.882812 738.484375 135.960938 737.253906 131.441406 Z M 737.253906 131.441406 " fill-opacity="1" fill-rule="nonzero"/><path fill="#d86f41" d="M 713.089844 142.816406 C 712.761719 142.820312 711.667969 142.339844 711.339844 142.332031 C 707.902344 142.300781 705.335938 141.523438 703.144531 140.992188 C 701.320312 140.550781 700.027344 140.710938 700.027344 140.710938 C 701.023438 140.320312 702.367188 138.832031 703.488281 138.578125 C 706.699219 137.859375 710.152344 137.992188 712.296875 140.484375 C 712.574219 140.804688 712.863281 142.410156 713.089844 142.816406 Z M 713.089844 142.816406 " fill-opacity="1" fill-rule="nonzero"/><path fill="#ffffff" d="M 712.804688 142.707031 C 712.472656 142.714844 712.136719 142.71875 711.808594 142.710938 C 711.109375 142.707031 710.425781 142.679688 709.757812 142.628906 C 707.121094 142.441406 704.734375 141.980469 702.984375 141.554688 C 702.464844 141.429688 702 141.304688 701.601562 141.195312 C 700.605469 140.917969 700.027344 140.714844 700.027344 140.714844 C 700.605469 140.484375 701.21875 140.273438 701.847656 140.085938 C 702.296875 139.949219 702.761719 139.824219 703.230469 139.722656 C 705.234375 139.273438 707.332031 139.15625 709.148438 139.738281 C 710.242188 140.085938 711.234375 140.6875 712.039062 141.625 C 712.316406 141.945312 712.574219 142.304688 712.804688 142.707031 Z M 712.804688 142.707031 " fill-opacity="1" fill-rule="nonzero"/><path fill="#16100f" d="M 709.808594 142.40625 L 709.757812 142.628906 C 707.121094 142.441406 704.734375 141.980469 702.984375 141.554688 C 702.464844 141.429688 702 141.300781 701.601562 141.195312 C 701.636719 140.992188 701.679688 140.785156 701.726562 140.578125 C 701.765625 140.410156 701.804688 140.246094 701.847656 140.082031 C 702.296875 139.949219 702.761719 139.824219 703.230469 139.71875 C 705.234375 139.273438 707.332031 139.15625 709.148438 139.738281 C 709.472656 140.164062 709.890625 142.046875 709.808594 142.40625 Z M 709.808594 142.40625 " fill-opacity="1" fill-rule="nonzero"/><path fill="#ffffff" d="M 705.128906 140.96875 C 705.074219 141.214844 704.804688 141.367188 704.53125 141.304688 C 704.253906 141.242188 704.078125 140.988281 704.132812 140.742188 C 704.1875 140.496094 704.457031 140.34375 704.734375 140.40625 C 705.007812 140.46875 705.1875 140.722656 705.128906 140.96875 Z M 705.128906 140.96875 " fill-opacity="1" fill-rule="nonzero"/><path fill="#d86f41" d="M 737.652344 136.800781 C 737.414062 136.960938 736.390625 137.042969 736.148438 137.191406 C 733.640625 138.753906 731.414062 139.265625 729.570312 139.8125 C 728.035156 140.273438 727.179688 141.011719 727.179688 141.011719 C 727.714844 140.207031 727.980469 138.289062 728.671875 137.550781 C 730.660156 135.4375 733.226562 133.957031 735.964844 135.132812 C 736.320312 135.285156 737.292969 136.554688 737.652344 136.800781 Z M 737.652344 136.800781 " fill-opacity="1" fill-rule="nonzero"/><path fill="#ffffff" d="M 737.390625 136.839844 C 737.152344 137 736.910156 137.160156 736.667969 137.304688 C 736.160156 137.621094 735.652344 137.914062 735.144531 138.179688 C 733.140625 139.238281 731.191406 139.941406 729.722656 140.375 C 729.285156 140.507812 728.886719 140.613281 728.546875 140.707031 C 727.695312 140.921875 727.179688 141.011719 727.179688 141.011719 C 727.488281 140.542969 727.832031 140.078125 728.195312 139.621094 C 728.460938 139.296875 728.738281 138.972656 729.027344 138.664062 C 730.269531 137.347656 731.734375 136.273438 733.328125 135.941406 C 734.285156 135.738281 735.289062 135.804688 736.320312 136.25 C 736.675781 136.398438 737.03125 136.59375 737.390625 136.839844 Z M 737.390625 136.839844 " fill-opacity="1" fill-rule="nonzero"/><path fill="#16100f" d="M 735.074219 137.964844 L 735.144531 138.179688 C 733.140625 139.238281 731.191406 139.941406 729.722656 140.375 C 729.285156 140.507812 728.886719 140.613281 728.546875 140.707031 C 728.476562 140.511719 728.410156 140.3125 728.34375 140.109375 C 728.292969 139.945312 728.246094 139.78125 728.195312 139.621094 C 728.460938 139.296875 728.738281 138.972656 729.027344 138.664062 C 730.269531 137.347656 731.734375 136.273438 733.328125 135.941406 C 733.765625 136.160156 734.964844 137.613281 735.074219 137.964844 Z M 735.074219 137.964844 " fill-opacity="1" fill-rule="nonzero"/><path fill="#ffffff" d="M 731 138.875 C 731.074219 139.117188 730.953125 139.371094 730.722656 139.445312 C 730.492188 139.519531 730.246094 139.378906 730.167969 139.136719 C 730.09375 138.898438 730.214844 138.640625 730.445312 138.570312 C 730.671875 138.496094 730.921875 138.632812 731 138.875 Z M 731 138.875 " fill-opacity="1" fill-rule="nonzero"/><path fill="#d86f41" d="M 727.085938 152.402344 C 723.953125 149.015625 724.25 146.28125 723.050781 142.289062 C 722.394531 145.839844 723.296875 149.011719 724.578125 152.1875 C 723.476562 152.945312 720.480469 154.476562 719.371094 155.195312 C 722.789062 155.878906 726.207031 154.96875 727.085938 152.402344 Z M 727.085938 152.402344 " fill-opacity="1" fill-rule="nonzero"/><path fill="#3d2726" d="M 712.207031 132.296875 C 712.207031 132.296875 708.175781 131.234375 701.75 132.296875 C 699.230469 132.710938 697.402344 133.777344 696.039062 135.75 C 699.210938 133.585938 715.28125 138.242188 712.207031 132.296875 Z M 712.207031 132.296875 " fill-opacity="1" fill-rule="nonzero"/><path fill="#3d2726" d="M 724.996094 130.964844 C 724.996094 130.964844 729.789062 129.128906 734.089844 129.351562 C 736.34375 129.464844 738.128906 130.136719 739.660156 131.871094 C 736.523438 130.230469 723.359375 137.292969 724.996094 130.964844 Z M 724.996094 130.964844 " fill-opacity="1" fill-rule="nonzero"/><path fill="#d86f41" d="M 714.324219 159.074219 C 714.324219 159.074219 714.390625 159.097656 714.515625 159.148438 C 714.636719 159.199219 714.824219 159.261719 715.050781 159.351562 C 715.285156 159.433594 715.566406 159.53125 715.890625 159.636719 C 716.214844 159.742188 716.582031 159.847656 716.980469 159.960938 C 717.386719 160.066406 717.824219 160.171875 718.285156 160.269531 C 718.75 160.367188 719.242188 160.457031 719.75 160.523438 C 720.003906 160.5625 720.265625 160.585938 720.527344 160.617188 C 720.789062 160.636719 721.054688 160.664062 721.320312 160.675781 C 721.855469 160.703125 722.394531 160.710938 722.933594 160.679688 C 723.46875 160.660156 724 160.59375 724.515625 160.503906 C 725.035156 160.417969 725.53125 160.289062 726.003906 160.144531 C 726.476562 159.996094 726.921875 159.820312 727.332031 159.632812 C 727.746094 159.441406 728.121094 159.234375 728.464844 159.03125 C 728.796875 158.816406 729.105469 158.617188 729.367188 158.421875 C 729.632812 158.230469 729.84375 158.042969 730.035156 157.898438 C 730.386719 157.589844 730.605469 157.414062 730.605469 157.414062 C 730.605469 157.414062 730.574219 157.472656 730.515625 157.582031 C 730.453125 157.6875 730.375 157.851562 730.253906 158.046875 C 730.117188 158.234375 729.976562 158.484375 729.757812 158.730469 C 729.648438 158.855469 729.542969 159 729.414062 159.132812 C 729.28125 159.269531 729.140625 159.410156 728.988281 159.554688 C 728.828125 159.691406 728.664062 159.839844 728.484375 159.984375 C 728.296875 160.117188 728.105469 160.265625 727.894531 160.398438 C 727.472656 160.667969 727 160.921875 726.480469 161.132812 C 725.957031 161.34375 725.402344 161.527344 724.8125 161.648438 C 724.226562 161.777344 723.621094 161.851562 723.011719 161.882812 C 722.40625 161.914062 721.796875 161.902344 721.207031 161.839844 C 720.613281 161.789062 720.042969 161.695312 719.5 161.570312 C 718.953125 161.449219 718.441406 161.296875 717.96875 161.132812 C 717.492188 160.972656 717.0625 160.777344 716.671875 160.597656 C 715.890625 160.230469 715.300781 159.839844 714.910156 159.554688 C 714.707031 159.410156 714.566406 159.289062 714.46875 159.203125 C 714.375 159.117188 714.324219 159.074219 714.324219 159.074219 Z M 714.324219 159.074219 " fill-opacity="1" fill-rule="nonzero"/><path fill="#d86f41" d="M 721.910156 166.460938 L 722.101562 166.460938 C 723.429688 166.886719 725.527344 167.125 726.984375 167.046875 C 725.882812 165.09375 723.40625 165.144531 721.910156 166.460938 Z M 721.910156 166.460938 " fill-opacity="1" fill-rule="nonzero"/><path fill="#3d2726" d="M 698.179688 103.574219 L 689.160156 106.851562 C 683.910156 109.515625 680.519531 117.105469 679.050781 122.703125 C 677.957031 126.847656 675.847656 137.148438 678.320312 142.667969 C 681.640625 141.582031 684.539062 139.320312 686.222656 142.316406 C 687.316406 144.265625 688.238281 152.316406 690.214844 151.910156 C 691.21875 147.71875 691.785156 143.878906 691.339844 139.378906 C 690.921875 135.128906 689.335938 130.667969 692.242188 126.859375 C 693.488281 125.226562 694.683594 124.753906 695.164062 122.703125 C 695.652344 120.640625 694.992188 118.3125 694.886719 116.152344 C 694.714844 112.695312 694.070312 104.894531 698.179688 103.574219 Z M 698.179688 103.574219 " fill-opacity="1" fill-rule="nonzero"/><path fill="#f9a56b" d="M 685.9375 141.71875 C 681.9375 138.671875 678.742188 140.503906 677.769531 143.558594 C 676.832031 146.5 677.304688 149.445312 678.5625 152 C 681.0625 157.085938 688.71875 161.359375 691.835938 157.324219 C 690.964844 150.359375 689.171875 144.382812 685.9375 141.71875 Z M 685.9375 141.71875 " fill-opacity="1" fill-rule="nonzero"/><path fill="#d86f41" d="M 688.253906 151.117188 C 686.847656 152.640625 684.757812 150.785156 684.53125 149.121094 C 684.222656 146.882812 685.640625 147.101562 684.320312 144.761719 C 682.070312 140.769531 678.125 143.371094 679.679688 147.027344 C 679.800781 144.910156 681.765625 144.816406 682.992188 146.253906 C 677.191406 151.566406 688.449219 157.988281 689.113281 150.832031 Z M 688.253906 151.117188 " fill-opacity="1" fill-rule="nonzero"/><path fill="#73504a" d="M 732.949219 107.746094 L 732.679688 108.265625 C 732.578125 108.246094 732.472656 108.222656 732.367188 108.199219 C 731.742188 110.671875 730.058594 112.757812 727.976562 114.347656 C 724.957031 116.652344 721.78125 118.160156 718.707031 120.3125 C 716.308594 121.992188 714.304688 123.703125 712.417969 125.707031 C 711.574219 123.015625 712.921875 119.753906 714.941406 117.914062 C 708.472656 118.40625 702.007812 124.832031 700.132812 130.863281 C 697.710938 127.386719 699.515625 121.671875 701.085938 118.175781 C 697.183594 118.996094 693.988281 125.007812 692.519531 128.246094 C 690.554688 132.585938 691.628906 139.113281 691.21875 143.703125 C 689.621094 141.980469 687.144531 137.347656 686.027344 135.226562 C 685.230469 133.707031 684.667969 132.183594 684.214844 130.617188 C 683.289062 132.246094 681.984375 134.035156 680.136719 136.039062 C 680.0625 135.382812 679.726562 134.820312 679.65625 134.136719 C 678.242188 135.605469 675.433594 140.980469 675.386719 140.980469 C 675.25 141.15625 674.492188 135.429688 674.375 133.492188 C 673.550781 134.210938 672.816406 135.386719 672.367188 136.292969 C 672.214844 133.933594 672.242188 131.292969 672.59375 129.03125 C 671.695312 129.246094 670.570312 129.859375 669.800781 130.242188 C 670.289062 128.058594 672.855469 125.136719 674.078125 123.089844 C 672.394531 124.378906 670.546875 125.386719 668.601562 126.113281 C 670.164062 117.75 672.023438 113.003906 676.816406 106.59375 C 677.03125 106.308594 677.257812 106.019531 677.492188 105.738281 C 681.058594 101.339844 686.34375 97.484375 691.3125 94.746094 C 696.921875 91.652344 707.363281 89.007812 713.824219 89.761719 C 721.167969 90.621094 730.589844 95.3125 732.632812 103.074219 C 733.019531 104.523438 733.144531 106.085938 732.949219 107.746094 Z M 732.949219 107.746094 " fill-opacity="1" fill-rule="nonzero"/><path fill="#684743" d="M 682.960938 108.488281 C 682.957031 108.492188 682.953125 108.5 682.949219 108.507812 C 682.957031 108.503906 682.964844 108.5 682.972656 108.496094 C 683.042969 108.429688 683.039062 108.425781 682.960938 108.488281 Z M 682.960938 108.488281 " fill-opacity="1" fill-rule="nonzero"/><path fill="#3d2726" d="M 732.949219 107.746094 L 732.679688 108.265625 C 732.578125 108.246094 732.472656 108.222656 732.367188 108.199219 C 731.742188 110.671875 730.058594 112.757812 727.976562 114.347656 C 724.957031 116.652344 721.78125 118.160156 718.707031 120.3125 C 716.308594 121.992188 714.304688 123.703125 712.417969 125.707031 C 711.574219 123.015625 712.921875 119.753906 714.941406 117.914062 C 708.472656 118.40625 702.007812 124.832031 700.132812 130.863281 C 697.710938 127.386719 699.515625 121.671875 701.085938 118.175781 C 697.183594 118.996094 693.988281 125.007812 692.519531 128.246094 C 690.554688 132.585938 691.628906 139.113281 691.21875 143.703125 C 689.621094 141.980469 687.144531 137.347656 686.027344 135.226562 C 685.230469 133.707031 684.667969 132.183594 684.214844 130.617188 C 683.289062 132.246094 681.984375 134.035156 680.136719 136.039062 C 680.0625 135.382812 679.726562 134.820312 679.65625 134.136719 C 678.242188 135.605469 675.433594 140.980469 675.386719 140.980469 C 675.25 141.15625 674.492188 135.429688 674.375 133.492188 C 673.550781 134.210938 672.816406 135.386719 672.367188 136.292969 C 672.214844 133.933594 672.242188 131.292969 672.59375 129.03125 C 671.695312 129.246094 670.570312 129.859375 669.800781 130.242188 C 670.289062 128.058594 672.855469 125.136719 674.078125 123.089844 C 672.394531 124.378906 670.546875 125.386719 668.601562 126.113281 C 670.164062 117.75 672.023438 113.003906 676.816406 106.59375 C 677.03125 106.308594 677.257812 106.019531 677.492188 105.738281 C 677.113281 108.019531 676.933594 110.238281 676.878906 112.148438 C 677.902344 110.085938 680.9375 109.257812 682.945312 108.507812 C 680.691406 111.109375 680.398438 116.382812 681.15625 119.488281 C 682.058594 118.269531 683.566406 116.785156 684.835938 115.84375 C 685.015625 118.824219 685.289062 123.34375 687.667969 125.429688 C 687.574219 115.179688 698.335938 108.796875 705.792969 103.980469 C 704.261719 105.921875 702.722656 110.035156 702.96875 112.480469 C 703.726562 112.015625 704.445312 111.417969 705.222656 110.933594 C 704.621094 112.574219 705.671875 115.035156 706.644531 116.425781 C 710.542969 114.457031 713.191406 111.1875 715.71875 107.816406 C 715.453125 109.984375 716.558594 112.476562 718.191406 113.867188 C 719.492188 112.75 720.582031 110.953125 721.375 109.457031 C 721.71875 110.101562 722.121094 110.734375 722.726562 111.175781 C 726.300781 109.152344 730.332031 106.636719 732.632812 103.078125 C 733.019531 104.523438 733.144531 106.085938 732.949219 107.746094 Z M 732.949219 107.746094 " fill-opacity="1" fill-rule="nonzero"/><path fill="#18181e" d="M 703.304688 150.609375 C 699.8125 150.894531 696.757812 148.65625 694.703125 144.304688 C 694.03125 142.878906 693.644531 141.59375 693.472656 140.953125 C 692.988281 139.144531 693.179688 138.945312 693.402344 138.714844 C 695.640625 136.40625 701.136719 135.199219 705.527344 134.839844 C 710.984375 134.394531 715.492188 135.054688 717.59375 136.609375 C 717.828125 136.785156 718.078125 136.96875 717.9375 138.953125 C 717.875 139.84375 717.707031 141.222656 717.269531 142.75 C 716.375 145.886719 714.328125 149.707031 709.644531 150.089844 C 709.640625 150.089844 709.644531 150.089844 709.640625 150.089844 L 709.5 150.097656 Z M 694.71875 139.566406 C 694.902344 140.734375 696.121094 145.066406 698.75 147.46875 C 700.070312 148.675781 701.558594 149.21875 703.179688 149.085938 L 703.289062 149.074219 L 709.519531 148.566406 C 711.371094 148.417969 712.894531 147.5625 714.054688 146.03125 C 716.207031 143.179688 716.511719 138.820312 716.445312 137.675781 C 714.554688 136.488281 710.386719 135.972656 705.652344 136.359375 C 700.78125 136.757812 696.46875 138.03125 694.71875 139.566406 Z M 694.71875 139.566406 " fill-opacity="1" fill-rule="nonzero"/><path fill="#18181e" d="M 730.929688 147.78125 C 727.96875 148.023438 725.347656 145.75 723.554688 141.378906 C 722.964844 139.945312 722.617188 138.65625 722.464844 138.015625 C 722.03125 136.203125 722.191406 136.007812 722.378906 135.78125 C 724.25 133.5 728.894531 132.363281 732.617188 132.058594 C 737.242188 131.679688 741.074219 132.398438 742.875 133.976562 C 743.078125 134.15625 743.289062 134.339844 743.195312 136.320312 C 743.152344 137.207031 743.03125 138.585938 742.679688 140.109375 C 741.957031 143.230469 740.265625 147.019531 736.300781 147.34375 C 736.300781 147.34375 736.300781 147.34375 736.296875 147.34375 L 736.175781 147.351562 Z M 723.507812 136.644531 C 723.675781 137.816406 724.765625 142.15625 727.027344 144.59375 C 728.160156 145.8125 729.429688 146.371094 730.804688 146.261719 L 730.894531 146.253906 L 736.171875 145.824219 C 737.742188 145.695312 739.027344 144.859375 739.988281 143.34375 C 741.78125 140.523438 741.984375 136.171875 741.914062 135.023438 C 740.296875 133.816406 736.753906 133.25 732.742188 133.578125 C 728.617188 133.917969 724.972656 135.136719 723.507812 136.644531 Z M 723.507812 136.644531 " fill-opacity="1" fill-rule="nonzero"/><path fill="#18181e" d="M 716.835938 137.695312 L 715.960938 136.246094 C 718.519531 134.699219 721.285156 134.375 723.75 135.335938 L 723.132812 136.914062 C 721.171875 136.144531 718.933594 136.421875 716.835938 137.695312 Z M 716.835938 137.695312 " fill-opacity="1" fill-rule="nonzero"/><path fill="#2e2a29" d="M 634.03125 242.628906 C 638.230469 239.0625 644.300781 240.539062 649.257812 240.242188 L 650.527344 188.679688 C 632.789062 202.589844 629.714844 221.101562 634.03125 242.628906 Z M 634.03125 242.628906 " fill-opacity="1" fill-rule="nonzero"/><path fill="#2e2a29" d="M 629.203125 219.109375 C 625.730469 213.589844 621.472656 217.660156 616.925781 220.363281 C 610.089844 224.429688 608.652344 225.84375 608.351562 233.199219 C 608.183594 237.25 607.796875 247.800781 603.96875 249.542969 L 608.476562 248.980469 C 610.929688 243.605469 610.769531 237.042969 612.984375 232.074219 C 614.820312 227.964844 620.53125 225.582031 624.816406 223.5625 C 628.519531 225.992188 629.84375 231.257812 630.015625 235.40625 C 631.132812 231.96875 631.398438 222.605469 629.203125 219.109375 Z M 629.203125 219.109375 " fill-opacity="1" fill-rule="nonzero"/><path fill="#2e2a29" d="M 676.367188 334.515625 C 675.363281 341.894531 669.613281 348.664062 665.042969 354.761719 C 656.515625 366.140625 647.398438 388.753906 632.152344 391.050781 C 588.621094 397.609375 592.589844 333.769531 588.382812 306.144531 C 587.042969 297.34375 585.339844 288.652344 590.421875 280.648438 C 595.113281 273.273438 597.210938 266.832031 599.738281 258.832031 C 602.546875 249.929688 606.667969 244.058594 614 237.996094 C 614.230469 237.804688 614.460938 237.613281 614.691406 237.421875 C 618.132812 234.558594 621.539062 231.605469 625.074219 228.964844 C 628.710938 226.25 633.578125 224.539062 636.921875 222.035156 L 642.785156 214.039062 C 643.613281 220.796875 650.601562 228.367188 653.597656 234.824219 C 657.203125 242.605469 661.578125 249.960938 665.855469 257.628906 C 670.40625 265.792969 669.222656 273.597656 668.402344 282.804688 C 668.203125 285.039062 668.070312 287.355469 668.027344 289.699219 C 667.90625 296.277344 668.507812 303.09375 670.390625 309.046875 C 672.867188 316.882812 677.542969 325.917969 676.367188 334.515625 Z M 676.367188 334.515625 " fill-opacity="1" fill-rule="nonzero"/><path fill="#423d3c" d="M 676.367188 334.515625 C 675.363281 341.894531 669.613281 348.664062 665.042969 354.761719 C 656.515625 366.140625 647.398438 388.753906 632.152344 391.050781 C 622.953125 392.4375 615.875 390.679688 610.394531 386.785156 C 589.933594 372.25 591.703125 327.933594 588.382812 306.144531 C 587.042969 297.34375 585.339844 288.652344 590.421875 280.648438 C 595.113281 273.273438 597.210938 266.832031 599.738281 258.832031 C 602.546875 249.929688 606.667969 244.058594 614 237.996094 C 614.230469 237.804688 614.460938 237.613281 614.691406 237.421875 C 613.347656 246.824219 614.742188 256.984375 617.199219 266.160156 C 619.414062 274.449219 621.964844 282.707031 623.609375 290.789062 C 624.785156 296.578125 624.617188 302.941406 626.886719 308.300781 C 637.027344 308.21875 646.191406 312.195312 654.929688 305.074219 C 660.304688 300.699219 664.21875 295.226562 668.027344 289.699219 C 667.910156 296.277344 668.507812 303.09375 670.390625 309.046875 C 671.582031 312.816406 673.28125 316.867188 674.597656 321.007812 C 676.011719 325.476562 676.976562 330.054688 676.367188 334.515625 Z M 676.367188 334.515625 " fill-opacity="1" fill-rule="nonzero"/><path fill="#2e2a29" d="M 676.367188 334.515625 C 675.363281 341.894531 669.613281 348.664062 665.042969 354.761719 C 656.515625 366.140625 647.398438 388.753906 632.152344 391.050781 C 622.953125 392.4375 615.875 390.679688 610.394531 386.785156 C 610.027344 382.941406 609.941406 379.101562 609.730469 375.03125 C 609.300781 366.632812 610.152344 357.816406 613.484375 349.992188 C 615.160156 346.039062 617.65625 342.769531 620.394531 339.316406 C 622.339844 336.863281 625.039062 330.164062 627.433594 328.730469 C 630.042969 327.171875 637.5 329.226562 640.65625 329.183594 C 645.859375 329.117188 649.945312 327.875 654.929688 326.640625 C 660.832031 325.175781 668.332031 323.605469 674.597656 321.007812 C 676.011719 325.476562 676.976562 330.054688 676.367188 334.515625 Z M 676.367188 334.515625 " fill-opacity="1" fill-rule="nonzero"/><path fill="#2e2a29" d="M 682.808594 196.460938 C 686.867188 204.804688 688.152344 215.117188 686.496094 224.183594 C 683.234375 242.050781 667.648438 316.605469 659.757812 325.058594 C 660.324219 327.875 668.210938 326.1875 671.03125 326.1875 C 682.054688 310.117188 704.6875 252.8125 699.570312 203.257812 C 698.425781 192.164062 680.535156 178.535156 674.617188 179.382812 C 668.699219 180.226562 659.824219 183.183594 659.824219 183.183594 C 666.171875 183.730469 679.976562 190.632812 682.808594 196.460938 Z M 682.808594 196.460938 " fill-opacity="1" fill-rule="nonzero"/><path fill="#d86f41" d="M 766.492188 274.351562 C 766.277344 275.152344 765.796875 275.957031 764.863281 276.6875 L 760.507812 276.15625 L 757.160156 275.746094 C 757.007812 273.894531 757.507812 272.039062 758.128906 270.195312 C 758.847656 268.085938 759.734375 265.992188 760.015625 263.933594 C 760.570312 264.289062 761.179688 264.695312 761.789062 265.148438 C 763.566406 266.46875 765.363281 268.175781 765.949219 270.113281 C 766.253906 271.113281 766.925781 272.730469 766.492188 274.351562 Z M 766.492188 274.351562 " fill-opacity="1" fill-rule="nonzero"/><path fill="#e2231a" d="M 758.585938 246.242188 L 742.257812 340.359375 C 741.996094 341.863281 740.5625 342.875 739.058594 342.613281 L 680.105469 332.386719 C 678.601562 332.125 677.589844 330.691406 677.851562 329.1875 L 694.179688 235.066406 C 694.441406 233.5625 695.875 232.554688 697.378906 232.8125 L 756.332031 243.042969 C 757.835938 243.304688 758.847656 244.734375 758.585938 246.242188 Z M 758.585938 246.242188 " fill-opacity="1" fill-rule="nonzero"/><path fill="#f92828" d="M 758.585938 246.242188 L 742.257812 340.359375 C 741.996094 341.863281 740.5625 342.875 739.058594 342.613281 L 682.761719 332.847656 C 681.257812 332.585938 680.25 331.152344 680.507812 329.648438 L 696.835938 235.527344 C 697.097656 234.023438 698.53125 233.015625 700.035156 233.277344 L 756.332031 243.042969 C 757.835938 243.304688 758.847656 244.734375 758.585938 246.242188 Z M 758.585938 246.242188 " fill-opacity="1" fill-rule="nonzero"/><path fill="#e2231a" d="M 738.089844 271.503906 C 737.828125 273.007812 736.398438 274.019531 734.890625 273.757812 L 713.152344 269.984375 C 711.644531 269.722656 710.636719 268.292969 710.898438 266.785156 L 712.042969 260.175781 C 712.304688 258.667969 713.738281 257.660156 715.242188 257.921875 L 736.984375 261.695312 C 738.492188 261.953125 739.5 263.386719 739.238281 264.890625 Z M 738.089844 271.503906 " fill-opacity="1" fill-rule="nonzero"/><path fill="#075975" d="M 766.410156 253.628906 L 741.285156 345.789062 C 740.882812 347.265625 739.363281 348.136719 737.886719 347.730469 L 680.160156 331.992188 C 678.6875 331.589844 677.820312 330.070312 678.21875 328.597656 L 703.347656 236.433594 C 703.75 234.960938 705.269531 234.089844 706.746094 234.492188 L 764.46875 250.230469 C 765.945312 250.632812 766.8125 252.15625 766.410156 253.628906 Z M 766.410156 253.628906 " fill-opacity="1" fill-rule="nonzero"/><path fill="#086a97" d="M 766.410156 253.628906 L 741.285156 345.789062 C 740.882812 347.265625 739.363281 348.136719 737.886719 347.730469 L 682.765625 332.703125 C 681.289062 332.300781 680.421875 330.78125 680.824219 329.304688 L 705.949219 237.144531 C 706.351562 235.671875 707.875 234.800781 709.347656 235.203125 L 764.46875 250.230469 C 765.945312 250.632812 766.8125 252.15625 766.410156 253.628906 Z M 766.410156 253.628906 " fill-opacity="1" fill-rule="nonzero"/><path fill="#075975" d="M 743.628906 276.847656 C 743.226562 278.324219 741.703125 279.191406 740.230469 278.789062 L 718.941406 272.984375 C 717.464844 272.582031 716.597656 271.0625 717 269.589844 L 718.765625 263.113281 C 719.167969 261.640625 720.6875 260.773438 722.160156 261.171875 L 743.449219 266.976562 C 744.925781 267.378906 745.792969 268.902344 745.390625 270.375 Z M 743.628906 276.847656 " fill-opacity="1" fill-rule="nonzero"/><path fill="#f9a56b" d="M 680.90625 284.964844 C 680.871094 285.933594 680.824219 286.828125 680.765625 287.625 C 680.035156 297.730469 676.570312 317.898438 664.234375 319.585938 C 651.480469 321.335938 645.878906 301.527344 644.1875 289.269531 C 643.714844 285.851562 639.328125 242.785156 640.804688 230.097656 L 680.109375 243.625 C 680.234375 246.6875 680.414062 251.136719 680.578125 256.101562 C 680.90625 265.867188 681.1875 277.648438 680.90625 284.964844 Z M 680.90625 284.964844 " fill-opacity="1" fill-rule="nonzero"/><path fill="#f9a56b" d="M 736.996094 272.28125 C 719.183594 289.886719 692.566406 279.339844 670.46875 286.734375 C 662.605469 289.367188 646.242188 272.910156 644.1875 282.085938 C 643.261719 286.210938 646.867188 309.886719 648.414062 313.363281 C 653.484375 324.773438 669.542969 326.324219 686.453125 318.433594 C 700.410156 311.917969 724.738281 301.847656 736.964844 293.5 Z M 736.996094 272.28125 " fill-opacity="1" fill-rule="nonzero"/><path fill="#d86f41" d="M 672.503906 254.191406 L 672.839844 254.269531 C 672.734375 253.851562 672.621094 253.441406 672.492188 253.050781 C 672.507812 253.417969 672.550781 253.824219 672.503906 254.191406 Z M 672.503906 254.191406 " fill-opacity="1" fill-rule="nonzero"/><path fill="#d86f41" d="M 680.90625 284.964844 C 674.992188 287.367188 669.933594 291.046875 664.117188 295.546875 C 666 289.976562 672.792969 286.695312 674.195312 282.085938 C 675.390625 278.164062 674.429688 271.308594 674.21875 267.292969 C 674.007812 263.386719 673.847656 258.246094 672.839844 254.269531 L 680.578125 256.105469 C 680.90625 265.867188 681.1875 277.648438 680.90625 284.964844 Z M 680.90625 284.964844 " fill-opacity="1" fill-rule="nonzero"/><path fill="#f9a56b" d="M 761.730469 262.96875 C 764.496094 254.679688 757.085938 258.851562 753.160156 261.132812 C 744.683594 266.050781 734.328125 265.726562 734.480469 276.902344 L 729.253906 280.796875 C 728.222656 289.355469 734.582031 295.9375 748.871094 295.9375 C 754.03125 295.9375 758.332031 272.882812 752.628906 270.070312 C 756.667969 267.183594 760.90625 265.445312 761.730469 262.96875 Z M 761.730469 262.96875 " fill-opacity="1" fill-rule="nonzero"/><path fill="#f9a56b" d="M 766.257812 273.699219 C 766.203125 274.386719 765.730469 275.023438 764.941406 276.183594 C 764.316406 277.109375 764.277344 276.722656 764.277344 277.867188 C 764.277344 278.394531 764.703125 279.828125 764.792969 280.421875 C 765.136719 282.746094 764.058594 284.5 761.425781 286.085938 C 762.609375 288.242188 762.191406 291.140625 758.667969 292.363281 C 758.402344 293.964844 756.980469 294.984375 754.988281 295.570312 C 749.828125 297.101562 740.84375 295.765625 738.253906 294.304688 L 746.949219 268.5 C 747.804688 269.75 755.117188 269.003906 757.039062 269.171875 C 757.082031 269.171875 757.125 269.175781 757.171875 269.183594 C 758.195312 269.265625 759.433594 269.285156 760.65625 269.421875 C 762.667969 269.640625 764.648438 270.175781 765.609375 271.808594 C 766.097656 272.628906 766.296875 273.179688 766.257812 273.699219 Z M 766.257812 273.699219 " fill-opacity="1" fill-rule="nonzero"/><path fill="#d86f41" d="M 766.257812 273.699219 C 766.203125 274.386719 765.730469 275.023438 764.941406 276.183594 C 764.316406 277.109375 764.277344 276.722656 764.277344 277.867188 C 764.277344 278.394531 764.703125 279.828125 764.792969 280.421875 C 765.136719 282.746094 764.058594 284.5 761.425781 286.085938 C 762.609375 288.242188 762.191406 291.140625 758.667969 292.363281 C 758.402344 293.964844 756.980469 294.984375 754.988281 295.570312 C 755.804688 294.046875 756.15625 292.390625 755.433594 290.523438 C 757.972656 289.117188 758.625 286.714844 757.796875 284.148438 C 760.453125 282.976562 761.691406 277.941406 759.550781 275.832031 C 759.621094 275.773438 759.6875 275.71875 759.753906 275.660156 C 761.316406 274.265625 761.226562 271.800781 760.65625 269.421875 C 762.667969 269.640625 764.648438 270.175781 765.609375 271.808594 C 766.097656 272.628906 766.296875 273.179688 766.257812 273.699219 Z M 766.257812 273.699219 " fill-opacity="1" fill-rule="nonzero"/><path fill="#dadaef" d="M 684.023438 261.273438 C 683.625 264.304688 683.105469 267.25 682.429688 270.066406 C 677.4375 271.144531 672.367188 271.863281 667.285156 272.226562 C 658.535156 272.855469 649.484375 272.277344 641.007812 269.835938 C 640.761719 267.496094 640.535156 265.140625 640.328125 262.769531 C 639.230469 250.105469 638.734375 237.046875 639.332031 224.445312 C 639.710938 216.417969 640.738281 206.769531 643.550781 199.511719 C 645.453125 194.589844 652.21875 182.761719 659.824219 184.03125 C 666.1875 185.089844 677.441406 192.382812 679.6875 197.132812 C 682.347656 202.75 683.957031 213.683594 684.34375 220.125 C 685.113281 232.898438 685.777344 247.90625 684.023438 261.273438 Z M 684.023438 261.273438 " fill-opacity="1" fill-rule="nonzero"/><path fill="#f8f8ff" d="M 684.023438 261.273438 C 683.625 264.304688 683.105469 267.25 682.429688 270.066406 C 677.4375 271.144531 672.367188 271.863281 667.285156 272.226562 C 658.535156 272.855469 649.484375 272.277344 641.007812 269.835938 C 640.761719 267.496094 640.535156 265.140625 640.328125 262.769531 C 646.726562 264.53125 655.769531 264.441406 662.015625 264.195312 C 669.570312 263.898438 677.109375 263.984375 684.023438 261.273438 Z M 684.023438 261.273438 " fill-opacity="1" fill-rule="nonzero"/></svg>